  0
SECTION
  2
HEADER
  9
$ACADVER
  1
AC1024
  9
$ACADMAINTVER
 70
     6
  9
$DWGCODEPAGE
  3
UNDEFINED
  9
$INSBASE
 10
0.0
 20
0.0
 30
0.0
  9
$EXTMIN
 10
1.000000000000000E+20
 20
1.000000000000000E+20
 30
1.000000000000000E+20
  9
$EXTMAX
 10
-1.000000000000000E+20
 20
-1.000000000000000E+20
 30
-1.000000000000000E+20
  9
$LIMMIN
 10
0.0
 20
0.0
  9
$LIMMAX
 10
12.0
 20
9.0
  9
$ORTHOMODE
 70
     0
  9
$REGENMODE
 70
     1
  9
$FILLMODE
 70
     1
  9
$QTEXTMODE
 70
     0
  9
$MIRRTEXT
 70
     1
  9
$LTSCALE
 40
1.0
  9
$ATTMODE
 70
     1
  9
$TEXTSIZE
 40
0.2
  9
$TRACEWID
 40
0.05
  9
$TEXTSTYLE
  7
Standard
  9
$CLAYER
  8
0
  9
$CELTYPE
  6
ByLayer
  9
$CECOLOR
 62
   256
  9
$CELTSCALE
 40
1.0
  9
$DISPSILH
 70
     0
  9
$DIMSCALE
 40
1.0
  9
$DIMASZ
 40
0.18
  9
$DIMEXO
 40
0.0625
  9
$DIMDLI
 40
0.38
  9
$DIMRND
 40
0.0
  9
$DIMDLE
 40
0.0
  9
$DIMEXE
 40
0.18
  9
$DIMTP
 40
0.0
  9
$DIMTM
 40
0.0
  9
$DIMTXT
 40
0.18
  9
$DIMCEN
 40
0.09
  9
$DIMTSZ
 40
0.0
  9
$DIMTOL
 70
     0
  9
$DIMLIM
 70
     0
  9
$DIMTIH
 70
     1
  9
$DIMTOH
 70
     1
  9
$DIMSE1
 70
     0
  9
$DIMSE2
 70
     0
  9
$DIMTAD
 70
     0
  9
$DIMZIN
 70
     0
  9
$DIMBLK
  1

  9
$DIMASO
 70
     1
  9
$DIMSHO
 70
     1
  9
$DIMPOST
  1

  9
$DIMAPOST
  1

  9
$DIMALT
 70
     0
  9
$DIMALTD
 70
     2
  9
$DIMALTF
 40
25.4
  9
$DIMLFAC
 40
1.0
  9
$DIMTOFL
 70
     0
  9
$DIMTVP
 40
0.0
  9
$DIMTIX
 70
     0
  9
$DIMSOXD
 70
     0
  9
$DIMSAH
 70
     0
  9
$DIMBLK1
  1

  9
$DIMBLK2
  1

  9
$DIMSTYLE
  2
Standard
  9
$DIMCLRD
 70
     0
  9
$DIMCLRE
 70
     0
  9
$DIMCLRT
 70
     0
  9
$DIMTFAC
 40
1.0
  9
$DIMGAP
 40
0.09
  9
$DIMJUST
 70
     0
  9
$DIMSD1
 70
     0
  9
$DIMSD2
 70
     0
  9
$DIMTOLJ
 70
     1
  9
$DIMTZIN
 70
     0
  9
$DIMALTZ
 70
     0
  9
$DIMALTTZ
 70
     0
  9
$DIMUPT
 70
     0
  9
$DIMDEC
 70
     4
  9
$DIMTDEC
 70
     4
  9
$DIMALTU
 70
     2
  9
$DIMALTTD
 70
     2
  9
$DIMTXSTY
  7
Standard
  9
$DIMAUNIT
 70
     0
  9
$DIMADEC
 70
     0
  9
$DIMALTRND
 40
0.0
  9
$DIMAZIN
 70
     0
  9
$DIMDSEP
 70
    46
  9
$DIMATFIT
 70
     3
  9
$DIMFRAC
 70
     0
  9
$DIMLDRBLK
  1

  9
$DIMLUNIT
 70
     2
  9
$DIMLWD
 70
    -2
  9
$DIMLWE
 70
    -2
  9
$DIMTMOVE
 70
     0
  9
$DIMFXL
 40
1.0
  9
$DIMFXLON
 70
     0
  9
$DIMJOGANG
 40
0.7853981633974483
  9
$DIMTFILL
 70
     0
  9
$DIMTFILLCLR
 70
     0
  9
$DIMARCSYM
 70
     0
  9
$DIMLTYPE
  6

  9
$DIMLTEX1
  6

  9
$DIMLTEX2
  6

  9
$DIMTXTDIRECTION
 70
     0
  9
$LUNITS
 70
     2
  9
$LUPREC
 70
     4
  9
$SKETCHINC
 40
0.1
  9
$FILLETRAD
 40
0.5
  9
$AUNITS
 70
     0
  9
$AUPREC
 70
     0
  9
$MENU
  1
.
  9
$ELEVATION
 40
0.0
  9
$PELEVATION
 40
0.0
  9
$THICKNESS
 40
0.0
  9
$LIMCHECK
 70
     0
  9
$CHAMFERA
 40
0.5
  9
$CHAMFERB
 40
0.5
  9
$CHAMFERC
 40
1.0
  9
$CHAMFERD
 40
0.0
  9
$SKPOLY
 70
     0
  9
$TDCREATE
 40
2458339.605590278
  9
$TDUCREATE
 40
2458339.938923611
  9
$TDUPDATE
 40
2458339.605590278
  9
$TDUUPDATE
 40
2458339.938923611
  9
$TDINDWG
 40
0.0000000116
  9
$TDUSRTIMER
 40
0.0000000116
  9
$USRTIMER
 70
     1
  9
$ANGBASE
 50
0.0
  9
$ANGDIR
 70
     0
  9
$PDMODE
 70
     0
  9
$PDSIZE
 40
0.0
  9
$PLINEWID
 40
0.0
  9
$SPLFRAME
 70
     0
  9
$SPLINETYPE
 70
     6
  9
$SPLINESEGS
 70
     8
  9
$HANDSEED
  5
160
  9
$SURFTAB1
 70
     6
  9
$SURFTAB2
 70
     6
  9
$SURFTYPE
 70
     6
  9
$SURFU
 70
     6
  9
$SURFV
 70
     6
  9
$UCSBASE
  2

  9
$UCSNAME
  2

  9
$UCSORG
 10
0.0
 20
0.0
 30
0.0
  9
$UCSXDIR
 10
1.0
 20
0.0
 30
0.0
  9
$UCSYDIR
 10
0.0
 20
1.0
 30
0.0
  9
$UCSORTHOREF
  2

  9
$UCSORTHOVIEW
 70
     0
  9
$UCSORGTOP
 10
0.0
 20
0.0
 30
0.0
  9
$UCSORGBOTTOM
 10
0.0
 20
0.0
 30
0.0
  9
$UCSORGLEFT
 10
0.0
 20
0.0
 30
0.0
  9
$UCSORGRIGHT
 10
0.0
 20
0.0
 30
0.0
  9
$UCSORGFRONT
 10
0.0
 20
0.0
 30
0.0
  9
$UCSORGBACK
 10
0.0
 20
0.0
 30
0.0
  9
$PUCSBASE
  2

  9
$PUCSNAME
  2

  9
$PUCSORG
 10
0.0
 20
0.0
 30
0.0
  9
$PUCSXDIR
 10
1.0
 20
0.0
 30
0.0
  9
$PUCSYDIR
 10
0.0
 20
1.0
 30
0.0
  9
$PUCSORTHOREF
  2

  9
$PUCSORTHOVIEW
 70
     0
  9
$PUCSORGTOP
 10
0.0
 20
0.0
 30
0.0
  9
$PUCSORGBOTTOM
 10
0.0
 20
0.0
 30
0.0
  9
$PUCSORGLEFT
 10
0.0
 20
0.0
 30
0.0
  9
$PUCSORGRIGHT
 10
0.0
 20
0.0
 30
0.0
  9
$PUCSORGFRONT
 10
0.0
 20
0.0
 30
0.0
  9
$PUCSORGBACK
 10
0.0
 20
0.0
 30
0.0
  9
$USERI1
 70
     0
  9
$USERI2
 70
     0
  9
$USERI3
 70
     0
  9
$USERI4
 70
     0
  9
$USERI5
 70
     0
  9
$USERR1
 40
0.0
  9
$USERR2
 40
0.0
  9
$USERR3
 40
0.0
  9
$USERR4
 40
0.0
  9
$USERR5
 40
0.0
  9
$WORLDVIEW
 70
     1
  9
$SHADEDGE
 70
     3
  9
$SHADEDIF
 70
    70
  9
$TILEMODE
 70
     1
  9
$MAXACTVP
 70
    64
  9
$PINSBASE
 10
0.0
 20
0.0
 30
0.0
  9
$PLIMCHECK
 70
     0
  9
$PEXTMIN
 10
1.000000000000000E+20
 20
1.000000000000000E+20
 30
1.000000000000000E+20
  9
$PEXTMAX
 10
-1.000000000000000E+20
 20
-1.000000000000000E+20
 30
-1.000000000000000E+20
  9
$PLIMMIN
 10
0.0
 20
0.0
  9
$PLIMMAX
 10
12.0
 20
9.0
  9
$UNITMODE
 70
     0
  9
$VISRETAIN
 70
     1
  9
$PLINEGEN
 70
     0
  9
$PSLTSCALE
 70
     1
  9
$TREEDEPTH
 70
  3020
  9
$CMLSTYLE
  2
Standard
  9
$CMLJUST
 70
     0
  9
$CMLSCALE
 40
1.0
  9
$PROXYGRAPHICS
 70
     1
  9
$MEASUREMENT
 70
     0
  9
$CELWEIGHT
370
    -1
  9
$ENDCAPS
280
     0
  9
$JOINSTYLE
280
     0
  9
$LWDISPLAY
290
     1
  9
$INSUNITS
 70
     1
  9
$HYPERLINKBASE
  1

  9
$STYLESHEET
  1

  9
$XEDIT
290
     1
  9
$CEPSNTYPE
380
     0
  9
$PSTYLEMODE
290
     1
  9
$FINGERPRINTGUID
  2
{E59E1644-A75D-43ED-2B10-90F9134282BB}
  9
$VERSIONGUID
  2
{FAEB1C32-E019-11D5-929B-00C0DF256EC4}
  9
$EXTNAMES
290
     1
  9
$PSVPSCALE
 40
0.0
  9
$OLESTARTUP
290
     0
  9
$SORTENTS
280
   127
  9
$INDEXCTL
280
     0
  9
$HIDETEXT
280
     1
  9
$XCLIPFRAME
280
     2
  9
$HALOGAP
280
     0
  9
$OBSCOLOR
 70
   257
  9
$OBSLTYPE
280
     0
  9
$INTERSECTIONDISPLAY
280
     0
  9
$INTERSECTIONCOLOR
 70
   257
  9
$DIMASSOC
280
     2
  9
$PROJECTNAME
  1

  9
$CAMERADISPLAY
290
     0
  9
$LENSLENGTH
 40
50.0
  9
$CAMERAHEIGHT
 40
0.0
  9
$STEPSPERSEC
 40
2.0
  9
$STEPSIZE
 40
6.0
  9
$3DDWFPREC
 40
2.0
  9
$PSOLWIDTH
 40
0.25
  9
$PSOLHEIGHT
 40
4.0
  9
$LOFTANG1
 40
1.570796326794897
  9
$LOFTANG2
 40
1.570796326794897
  9
$LOFTMAG1
 40
0.0
  9
$LOFTMAG2
 40
0.0
  9
$LOFTPARAM
 70
     7
  9
$LOFTNORMALS
280
     1
  9
$LATITUDE
 40
37.795
  9
$LONGITUDE
 40
-122.394
  9
$NORTHDIRECTION
 40
0.0
  9
$TIMEZONE
 70
 -8000
  9
$LIGHTGLYPHDISPLAY
280
     1
  9
$TILEMODELIGHTSYNCH
280
     1
  9
$CMATERIAL
347
3C
  9
$SOLIDHIST
280
     1
  9
$SHOWHIST
280
     1
  9
$DWFFRAME
280
     2
  9
$DGNFRAME
280
     2
  9
$REALWORLDSCALE
290
     1
  9
$INTERFERECOLOR
 62
   256
  9
$CSHADOW
280
     0
  9
$SHADOWPLANELOCATION
 40
0.0
  0
ENDSEC
  0
SECTION
  2
CLASSES
  0
CLASS
  1
ACDBDICTIONARYWDFLT
  2
AcDbDictionaryWithDefault
  3
ObjectDBX Classes
 90
        0
 91
        4
280
     0
281
     0
  0
CLASS
  1
VISUALSTYLE
  2
AcDbVisualStyle
  3
ObjectDBX Classes
 90
     4095
 91
        4
280
     0
281
     0
  0
CLASS
  1
MATERIAL
  2
AcDbMaterial
  3
ObjectDBX Classes
 90
     1153
 91
        4
280
     0
281
     0
  0
CLASS
  1
SUN
  2
AcDbSun
  3
SCENEOE
 90
     1024
 91
        4
280
     0
281
     0
  0
ENDSEC
  0
SECTION
  2
TABLES
  0
TABLE
  2
VPORT
  5
8
330
0
100
AcDbSymbolTable
 70
     1
  0
VPORT
  5
29
330
8
100
AcDbSymbolTableRecord
100
AcDbViewportTableRecord
  2
*Active
 70
     0
 10
0.0
 20
0.0
 11
1.0
 21
1.0
 12
0.0
 22
0.0
 13
0.0
 23
0.0
 14
0.5
 24
0.5
 15
0.5
 25
0.5
 16
0.0
 26
0.0
 36
1.0
 17
388.1470945857372
 27
-413.0771015847253
 37
0.0
 40
304.7999999237994
 41
2.100962554393686
 42
50.0
 43
0.0
 44
0.0
 50
0.0
 51
0.0
 71
     0
 72
   100
 73
     1
 74
     3
 75
     0
 76
     0
 77
     0
 78
     0
281
     0
 65
     1
110
0.0
120
0.0
130
0.0
111
1.0
121
0.0
131
0.0
112
0.0
122
1.0
132
0.0
 79
     0
146
0.0
 60
     3
 61
     5
292
     1
282
     1
141
0.0
142
0.0
 63
   250
361
3F
  0
ENDTAB
  0
TABLE
  2
LTYPE
  5
5
330
0
100
AcDbSymbolTable
 70
     1
  0
LTYPE
  5
14
330
5
100
AcDbSymbolTableRecord
100
AcDbLinetypeTableRecord
  2
ByBlock
 70
     0
  3

 72
    65
 73
     0
 40
0.0
  0
LTYPE
  5
15
330
5
100
AcDbSymbolTableRecord
100
AcDbLinetypeTableRecord
  2
ByLayer
 70
     0
  3

 72
    65
 73
     0
 40
0.0
  0
LTYPE
  5
16
330
5
100
AcDbSymbolTableRecord
100
AcDbLinetypeTableRecord
  2
Continuous
 70
     0
  3
Solid line
 72
    65
 73
     0
 40
0.0
  0
ENDTAB
  0
TABLE
  2
LAYER
  5
2
330
0
100
AcDbSymbolTable
 70
     2
  0
LAYER
  5
10
330
2
100
AcDbSymbolTableRecord
100
AcDbLayerTableRecord
  2
0
 70
     0
 62
     7
  6
Continuous
370
    -3
390
F
347
3E
  0
LAYER
  5
40
330
2
100
AcDbSymbolTableRecord
100
AcDbLayerTableRecord
  2
Layer 1
 70
     0
 62
     7
  6
Continuous
370
    -3
390
F
347
3E
  0
ENDTAB
  0
TABLE
  2
STYLE
  5
3
330
0
100
AcDbSymbolTable
 70
     1
  0
STYLE
  5
11
330
3
100
AcDbSymbolTableRecord
100
AcDbTextStyleTableRecord
  2
Standard
 70
     0
 40
0.0
 41
1.0
 50
0.0
 71
     0
 42
0.2
  3
txt
  4

  0
ENDTAB
  0
TABLE
  2
VIEW
  5
6
330
0
100
AcDbSymbolTable
 70
     0
  0
ENDTAB
  0
TABLE
  2
UCS
  5
7
330
0
100
AcDbSymbolTable
 70
     0
  0
ENDTAB
  0
TABLE
  2
APPID
  5
9
330
0
100
AcDbSymbolTable
 70
     1
  0
APPID
  5
12
330
9
100
AcDbSymbolTableRecord
100
AcDbRegAppTableRecord
  2
ACAD
 70
     0
  0
ENDTAB
  0
TABLE
  2
DIMSTYLE
  5
A
330
0
100
AcDbSymbolTable
 70
     1
100
AcDbDimStyleTable
  0
DIMSTYLE
105
27
330
A
100
AcDbSymbolTableRecord
100
AcDbDimStyleTableRecord
  2
Standard
 70
     0
178
     0
340
11
  0
ENDTAB
  0
TABLE
  2
BLOCK_RECORD
  5
1
330
0
100
AcDbSymbolTable
 70
    41
  0
BLOCK_RECORD
  5
1F
330
1
100
AcDbSymbolTableRecord
100
AcDbBlockTableRecord
  2
*Model_Space
340
22
 70
     0
280
     1
281
     0
  0
BLOCK_RECORD
  5
1B
330
1
100
AcDbSymbolTableRecord
100
AcDbBlockTableRecord
  2
*Paper_Space
340
1E
 70
     0
280
     1
281
     0
  0
BLOCK_RECORD
  5
23
330
1
100
AcDbSymbolTableRecord
100
AcDbBlockTableRecord
  2
*Paper_Space0
340
26
 70
     0
280
     1
281
     0
  0
BLOCK_RECORD
  5
47
330
1
100
AcDbSymbolTableRecord
100
AcDbBlockTableRecord
  2
block 2
340
0
102
{BLKREFS
331
48
102
}
 70
     0
280
     1
281
     0
  0
BLOCK_RECORD
  5
4B
330
1
100
AcDbSymbolTableRecord
100
AcDbBlockTableRecord
  2
block 3
340
0
102
{BLKREFS
331
4C
102
}
 70
     0
280
     1
281
     0
  0
BLOCK_RECORD
  5
51
330
1
100
AcDbSymbolTableRecord
100
AcDbBlockTableRecord
  2
block 4
340
0
102
{BLKREFS
331
52
102
}
 70
     0
280
     1
281
     0
  0
BLOCK_RECORD
  5
5D
330
1
100
AcDbSymbolTableRecord
100
AcDbBlockTableRecord
  2
block 5
340
0
102
{BLKREFS
331
5E
102
}
 70
     0
280
     1
281
     0
  0
BLOCK_RECORD
  5
61
330
1
100
AcDbSymbolTableRecord
100
AcDbBlockTableRecord
  2
block 6
340
0
102
{BLKREFS
331
62
102
}
 70
     0
280
     1
281
     0
  0
BLOCK_RECORD
  5
67
330
1
100
AcDbSymbolTableRecord
100
AcDbBlockTableRecord
  2
block 7
340
0
102
{BLKREFS
331
68
102
}
 70
     0
280
     1
281
     0
  0
BLOCK_RECORD
  5
73
330
1
100
AcDbSymbolTableRecord
100
AcDbBlockTableRecord
  2
block 8
340
0
102
{BLKREFS
331
74
102
}
 70
     0
280
     1
281
     0
  0
BLOCK_RECORD
  5
77
330
1
100
AcDbSymbolTableRecord
100
AcDbBlockTableRecord
  2
block 9
340
0
102
{BLKREFS
331
78
102
}
 70
     0
280
     1
281
     0
  0
BLOCK_RECORD
  5
7D
330
1
100
AcDbSymbolTableRecord
100
AcDbBlockTableRecord
  2
block 10
340
0
102
{BLKREFS
331
7E
102
}
 70
     0
280
     1
281
     0
  0
BLOCK_RECORD
  5
89
330
1
100
AcDbSymbolTableRecord
100
AcDbBlockTableRecord
  2
block 11
340
0
102
{BLKREFS
331
8A
102
}
 70
     0
280
     1
281
     0
  0
BLOCK_RECORD
  5
8D
330
1
100
AcDbSymbolTableRecord
100
AcDbBlockTableRecord
  2
block 12
340
0
102
{BLKREFS
331
8E
102
}
 70
     0
280
     1
281
     0
  0
BLOCK_RECORD
  5
93
330
1
100
AcDbSymbolTableRecord
100
AcDbBlockTableRecord
  2
block 13
340
0
102
{BLKREFS
331
94
102
}
 70
     0
280
     1
281
     0
  0
BLOCK_RECORD
  5
9F
330
1
100
AcDbSymbolTableRecord
100
AcDbBlockTableRecord
  2
block 14
340
0
102
{BLKREFS
331
A0
102
}
 70
     0
280
     1
281
     0
  0
BLOCK_RECORD
  5
A3
330
1
100
AcDbSymbolTableRecord
100
AcDbBlockTableRecord
  2
block 15
340
0
102
{BLKREFS
331
A4
102
}
 70
     0
280
     1
281
     0
  0
BLOCK_RECORD
  5
A9
330
1
100
AcDbSymbolTableRecord
100
AcDbBlockTableRecord
  2
block 16
340
0
102
{BLKREFS
331
AA
102
}
 70
     0
280
     1
281
     0
  0
BLOCK_RECORD
  5
AF
330
1
100
AcDbSymbolTableRecord
100
AcDbBlockTableRecord
  2
block 17
340
0
102
{BLKREFS
331
B0
102
}
 70
     0
280
     1
281
     0
  0
BLOCK_RECORD
  5
B4
330
1
100
AcDbSymbolTableRecord
100
AcDbBlockTableRecord
  2
block 18
340
0
102
{BLKREFS
331
B5
102
}
 70
     0
280
     1
281
     0
  0
BLOCK_RECORD
  5
BA
330
1
100
AcDbSymbolTableRecord
100
AcDbBlockTableRecord
  2
block 19
340
0
102
{BLKREFS
331
BB
102
}
 70
     0
280
     1
281
     0
  0
BLOCK_RECORD
  5
C0
330
1
100
AcDbSymbolTableRecord
100
AcDbBlockTableRecord
  2
block 20
340
0
102
{BLKREFS
331
C1
102
}
 70
     0
280
     1
281
     0
  0
BLOCK_RECORD
  5
C6
330
1
100
AcDbSymbolTableRecord
100
AcDbBlockTableRecord
  2
block 21
340
0
102
{BLKREFS
331
C7
102
}
 70
     0
280
     1
281
     0
  0
BLOCK_RECORD
  5
D2
330
1
100
AcDbSymbolTableRecord
100
AcDbBlockTableRecord
  2
block 22
340
0
102
{BLKREFS
331
D3
102
}
 70
     0
280
     1
281
     0
  0
BLOCK_RECORD
  5
D7
330
1
100
AcDbSymbolTableRecord
100
AcDbBlockTableRecord
  2
block 23
340
0
102
{BLKREFS
331
D8
102
}
 70
     0
280
     1
281
     0
  0
BLOCK_RECORD
  5
DD
330
1
100
AcDbSymbolTableRecord
100
AcDbBlockTableRecord
  2
block 24
340
0
102
{BLKREFS
331
DE
102
}
 70
     0
280
     1
281
     0
  0
BLOCK_RECORD
  5
E3
330
1
100
AcDbSymbolTableRecord
100
AcDbBlockTableRecord
  2
block 25
340
0
102
{BLKREFS
331
E4
102
}
 70
     0
280
     1
281
     0
  0
BLOCK_RECORD
  5
E9
330
1
100
AcDbSymbolTableRecord
100
AcDbBlockTableRecord
  2
block 26
340
0
102
{BLKREFS
331
EA
102
}
 70
     0
280
     1
281
     0
  0
BLOCK_RECORD
  5
F5
330
1
100
AcDbSymbolTableRecord
100
AcDbBlockTableRecord
  2
block 27
340
0
102
{BLKREFS
331
F6
102
}
 70
     0
280
     1
281
     0
  0
BLOCK_RECORD
  5
FA
330
1
100
AcDbSymbolTableRecord
100
AcDbBlockTableRecord
  2
block 28
340
0
102
{BLKREFS
331
FB
102
}
 70
     0
280
     1
281
     0
  0
BLOCK_RECORD
  5
100
330
1
100
AcDbSymbolTableRecord
100
AcDbBlockTableRecord
  2
block 29
340
0
102
{BLKREFS
331
101
102
}
 70
     0
280
     1
281
     0
  0
BLOCK_RECORD
  5
106
330
1
100
AcDbSymbolTableRecord
100
AcDbBlockTableRecord
  2
block 30
340
0
102
{BLKREFS
331
107
102
}
 70
     0
280
     1
281
     0
  0
BLOCK_RECORD
  5
10C
330
1
100
AcDbSymbolTableRecord
100
AcDbBlockTableRecord
  2
block 31
340
0
102
{BLKREFS
331
10D
102
}
 70
     0
280
     1
281
     0
  0
BLOCK_RECORD
  5
118
330
1
100
AcDbSymbolTableRecord
100
AcDbBlockTableRecord
  2
block 32
340
0
102
{BLKREFS
331
119
102
}
 70
     0
280
     1
281
     0
  0
BLOCK_RECORD
  5
11D
330
1
100
AcDbSymbolTableRecord
100
AcDbBlockTableRecord
  2
block 33
340
0
102
{BLKREFS
331
11E
102
}
 70
     0
280
     1
281
     0
  0
BLOCK_RECORD
  5
123
330
1
100
AcDbSymbolTableRecord
100
AcDbBlockTableRecord
  2
block 34
340
0
102
{BLKREFS
331
124
102
}
 70
     0
280
     1
281
     0
  0
BLOCK_RECORD
  5
129
330
1
100
AcDbSymbolTableRecord
100
AcDbBlockTableRecord
  2
block 35
340
0
102
{BLKREFS
331
12A
102
}
 70
     0
280
     1
281
     0
  0
BLOCK_RECORD
  5
12F
330
1
100
AcDbSymbolTableRecord
100
AcDbBlockTableRecord
  2
block 36
340
0
102
{BLKREFS
331
130
102
}
 70
     0
280
     1
281
     0
  0
BLOCK_RECORD
  5
13B
330
1
100
AcDbSymbolTableRecord
100
AcDbBlockTableRecord
  2
block 37
340
0
102
{BLKREFS
331
13C
102
}
 70
     0
280
     1
281
     0
  0
BLOCK_RECORD
  5
140
330
1
100
AcDbSymbolTableRecord
100
AcDbBlockTableRecord
  2
block 38
340
0
102
{BLKREFS
331
141
102
}
 70
     0
280
     1
281
     0
  0
BLOCK_RECORD
  5
146
330
1
100
AcDbSymbolTableRecord
100
AcDbBlockTableRecord
  2
block 39
340
0
102
{BLKREFS
331
147
102
}
 70
     0
280
     1
281
     0
  0
BLOCK_RECORD
  5
14C
330
1
100
AcDbSymbolTableRecord
100
AcDbBlockTableRecord
  2
block 40
340
0
102
{BLKREFS
331
14D
102
}
 70
     0
280
     1
281
     0
  0
BLOCK_RECORD
  5
152
330
1
100
AcDbSymbolTableRecord
100
AcDbBlockTableRecord
  2
block 41
340
0
102
{BLKREFS
331
153
102
}
 70
     0
280
     1
281
     0
  0
ENDTAB
  0
ENDSEC
  0
SECTION
  2
BLOCKS
  0
BLOCK
  5
20
330
1F
100
AcDbEntity
  8
0
100
AcDbBlockBegin
  2
*Model_Space
 70
     0
 10
0.0
 20
0.0
 30
0.0
  3
*Model_Space
  1

  0
ENDBLK
  5
21
330
1F
100
AcDbEntity
  8
0
100
AcDbBlockEnd
  0
BLOCK
  5
1C
330
1B
100
AcDbEntity
 67
     1
  8
0
100
AcDbBlockBegin
  2
*Paper_Space
 70
     0
 10
0.0
 20
0.0
 30
0.0
  3
*Paper_Space
  1

  0
ENDBLK
  5
1D
330
1B
100
AcDbEntity
 67
     1
  8
0
100
AcDbBlockEnd
  0
BLOCK
  5
24
330
23
100
AcDbEntity
  8
0
100
AcDbBlockBegin
  2
*Paper_Space0
 70
     0
 10
0.0
 20
0.0
 30
0.0
  3
*Paper_Space0
  1

  0
ENDBLK
  5
25
330
23
100
AcDbEntity
  8
0
100
AcDbBlockEnd
  0
BLOCK
  5
49
330
47
100
AcDbEntity
  8
0
100
AcDbBlockBegin
  2
block 2
 70
     0
 10
0.0
 20
0.0
 30
0.0
  3
block 2
  1

  0
INSERT
  5
4C
330
47
100
AcDbEntity
  8
Layer 1
100
AcDbBlockReference
  2
block 3
 10
0.0
 20
0.0
 30
0.0
  0
INSERT
  5
52
330
47
100
AcDbEntity
  8
Layer 1
100
AcDbBlockReference
  2
block 4
 10
0.0
 20
0.0
 30
0.0
  0
ENDBLK
  5
4A
330
47
100
AcDbEntity
  8
0
100
AcDbBlockEnd
  0
BLOCK
  5
4D
330
4B
100
AcDbEntity
  8
0
100
AcDbBlockBegin
  2
block 3
 70
     0
 10
0.0
 20
0.0
 30
0.0
  3
block 3
  1

  0
SPLINE
  5
4F
330
4B
100
AcDbEntity
  8
Layer 1
 62
     7
420
 16777215
370
     9
100
AcDbSpline
210
0.0
220
0.0
230
1.0
 70
    11
 71
     3
 72
    17
 73
    13
 74
     0
 42
0.0000000001
 43
0.0000000001
 12
1.0
 22
0.0
 32
0.0
 13
1.0
 23
0.0
 33
0.0
 40
0.0
 40
0.0
 40
0.0
 40
0.0
 40
1.0
 40
1.0
 40
1.0
 40
2.0
 40
2.0
 40
2.0
 40
3.0
 40
3.0
 40
3.0
 40
4.0
 40
4.0
 40
4.0
 40
4.0
 10
174.7628822943107
 20
-553.8018732041352
 30
0.0
 10
174.9926728554175
 20
-554.4235000325384
 30
0.0
 10
175.6828808149259
 20
-554.7411534524102
 30
0.0
 10
176.304507643333
 20
-554.511362891299
 30
0.0
 10
176.9261445698031
 20
-554.281568597341
 30
0.0
 10
177.2437841587575
 20
-553.5913542726208
 30
0.0
 10
177.0139935976501
 20
-552.9697274442137
 30
0.0
 10
176.7842030365427
 20
-552.3481006158066
 30
0.0
 10
176.093995077031
 20
-552.0304471959348
 30
0.0
 10
175.472358150561
 20
-552.2602414898935
 30
0.0
 10
174.8507313221571
 20
-552.4900320510009
 30
0.0
 10
174.5330917332026
 20
-553.1802463757281
 30
0.0
 10
174.7628822943107
 20
-553.8018732041352
 30
0.0
  0
SPLINE
  5
50
330
4B
100
AcDbEntity
  8
Layer 1
 62
     7
420
 16777215
370
     9
100
AcDbSpline
210
0.0
220
0.0
230
1.0
 70
    11
 71
     3
 72
    17
 73
    13
 74
     0
 42
0.0000000001
 43
0.0000000001
 12
1.0
 22
0.0
 32
0.0
 13
1.0
 23
0.0
 33
0.0
 40
0.0
 40
0.0
 40
0.0
 40
0.0
 40
1.0
 40
1.0
 40
1.0
 40
2.0
 40
2.0
 40
2.0
 40
3.0
 40
3.0
 40
3.0
 40
4.0
 40
4.0
 40
4.0
 40
4.0
 10
186.0184691052081
 20
-549.6411332059677
 30
0.0
 10
186.2482596663149
 20
-550.2627600343786
 30
0.0
 10
186.938467625824
 20
-550.5804134542434
 30
0.0
 10
187.5600944542311
 20
-550.350622893136
 30
0.0
 10
188.1817313807005
 20
-550.1208285991773
 30
0.0
 10
188.499370969655
 20
-549.4306142744533
 30
0.0
 10
188.2695804085476
 20
-548.8089874460462
 30
0.0
 10
188.0397898474401
 20
-548.1873606176429
 30
0.0
 10
187.3495818879317
 20
-547.8697071977749
 30
0.0
 10
186.7279449614588
 20
-548.0995014917297
 30
0.0
 10
186.1063181330545
 20
-548.3292920528372
 30
0.0
 10
185.7886785441001
 20
-549.0195063775644
 30
0.0
 10
186.0184691052081
 20
-549.6411332059677
 30
0.0
  0
ENDBLK
  5
4E
330
4B
100
AcDbEntity
  8
0
100
AcDbBlockEnd
  0
BLOCK
  5
53
330
51
100
AcDbEntity
  8
0
100
AcDbBlockBegin
  2
block 4
 70
     0
 10
0.0
 20
0.0
 30
0.0
  3
block 4
  1

  0
SPLINE
  5
55
330
51
100
AcDbEntity
  8
Layer 1
 62
     7
420
 16777215
370
     9
100
AcDbSpline
210
0.0
220
0.0
230
1.0
 70
    11
 71
     3
 72
    17
 73
    13
 74
     0
 42
0.0000000001
 43
0.0000000001
 12
1.0
 22
0.0
 32
0.0
 13
1.0
 23
0.0
 33
0.0
 40
0.0
 40
0.0
 40
0.0
 40
0.0
 40
1.0
 40
1.0
 40
1.0
 40
2.0
 40
2.0
 40
2.0
 40
3.0
 40
3.0
 40
3.0
 40
4.0
 40
4.0
 40
4.0
 40
4.0
 10
210.2652947910194
 20
-553.8018732049322
 30
0.0
 10
210.0355042298837
 20
-554.4235000333251
 30
0.0
 10
209.3452962703611
 20
-554.7411534531649
 30
0.0
 10
208.7236694419643
 20
-554.511362892026
 30
0.0
 10
208.102032515502
 20
-554.281568598043
 30
0.0
 10
207.784392926579
 20
-553.5913542733017
 30
0.0
 10
208.0141834877185
 20
-552.9697274449087
 30
0.0
 10
208.2439740488541
 20
-552.3481006165157
 30
0.0
 10
208.9341820083767
 20
-552.0304471966721
 30
0.0
 10
209.5558189348394
 20
-552.2602414906589
 30
0.0
 10
210.1774457632324
 20
-552.4900320517946
 30
0.0
 10
210.4950853521551
 20
-553.1802463765359
 30
0.0
 10
210.2652947910194
 20
-553.8018732049322
 30
0.0
  0
SPLINE
  5
56
330
51
100
AcDbEntity
  8
Layer 1
 62
     7
420
 16777215
370
     9
100
AcDbSpline
210
0.0
220
0.0
230
1.0
 70
    11
 71
     3
 72
    17
 73
    13
 74
     0
 42
0.0000000001
 43
0.0000000001
 12
1.0
 22
0.0
 32
0.0
 13
1.0
 23
0.0
 33
0.0
 40
0.0
 40
0.0
 40
0.0
 40
0.0
 40
1.0
 40
1.0
 40
1.0
 40
2.0
 40
2.0
 40
2.0
 40
3.0
 40
3.0
 40
3.0
 40
4.0
 40
4.0
 40
4.0
 40
4.0
 10
199.0097079803086
 20
-549.6411332062609
 30
0.0
 10
198.779917419173
 20
-550.2627600346572
 30
0.0
 10
198.0897094596472
 20
-550.5804134544936
 30
0.0
 10
197.4680826312504
 20
-550.3506228933612
 30
0.0
 10
196.8464457047912
 20
-550.1208285993711
 30
0.0
 10
196.5288061158688
 20
-549.4306142746336
 30
0.0
 10
196.7585966770039
 20
-548.8089874462368
 30
0.0
 10
196.9883872381401
 20
-548.1873606178438
 30
0.0
 10
197.678595197666
 20
-547.869707198004
 30
0.0
 10
198.3002321241289
 20
-548.099501491991
 30
0.0
 10
198.9218589525219
 20
-548.3292920531266
 30
0.0
 10
199.2394985414443
 20
-549.019506377868
 30
0.0
 10
199.0097079803086
 20
-549.6411332062609
 30
0.0
  0
ENDBLK
  5
54
330
51
100
AcDbEntity
  8
0
100
AcDbBlockEnd
  0
BLOCK
  5
5F
330
5D
100
AcDbEntity
  8
0
100
AcDbBlockBegin
  2
block 5
 70
     0
 10
0.0
 20
0.0
 30
0.0
  3
block 5
  1

  0
INSERT
  5
62
330
5D
100
AcDbEntity
  8
Layer 1
100
AcDbBlockReference
  2
block 6
 10
0.0
 20
0.0
 30
0.0
  0
INSERT
  5
68
330
5D
100
AcDbEntity
  8
Layer 1
100
AcDbBlockReference
  2
block 7
 10
0.0
 20
0.0
 30
0.0
  0
ENDBLK
  5
60
330
5D
100
AcDbEntity
  8
0
100
AcDbBlockEnd
  0
BLOCK
  5
63
330
61
100
AcDbEntity
  8
0
100
AcDbBlockBegin
  2
block 6
 70
     0
 10
0.0
 20
0.0
 30
0.0
  3
block 6
  1

  0
SPLINE
  5
65
330
61
100
AcDbEntity
  8
Layer 1
 62
     7
420
 16777215
370
     9
100
AcDbSpline
210
0.0
220
0.0
230
1.0
 70
    11
 71
     3
 72
    17
 73
    13
 74
     0
 42
0.0000000001
 43
0.0000000001
 12
1.0
 22
0.0
 32
0.0
 13
1.0
 23
0.0
 33
0.0
 40
0.0
 40
0.0
 40
0.0
 40
0.0
 40
1.0
 40
1.0
 40
1.0
 40
2.0
 40
2.0
 40
2.0
 40
3.0
 40
3.0
 40
3.0
 40
4.0
 40
4.0
 40
4.0
 40
4.0
 10
286.8805493555818
 20
-553.8018732041352
 30
0.0
 10
287.1103399166886
 20
-554.4235000325384
 30
0.0
 10
287.8005478761971
 20
-554.7411534524102
 30
0.0
 10
288.4221747046042
 20
-554.511362891299
 30
0.0
 10
289.0438116310742
 20
-554.281568597341
 30
0.0
 10
289.3614512200287
 20
-553.5913542726208
 30
0.0
 10
289.1316606589212
 20
-552.9697274442137
 30
0.0
 10
288.9018700978139
 20
-552.3481006158066
 30
0.0
 10
288.2116621383021
 20
-552.0304471959348
 30
0.0
 10
287.5900252118321
 20
-552.2602414898935
 30
0.0
 10
286.9683983834282
 20
-552.4900320510009
 30
0.0
 10
286.6507587944737
 20
-553.1802463757281
 30
0.0
 10
286.8805493555818
 20
-553.8018732041352
 30
0.0
  0
SPLINE
  5
66
330
61
100
AcDbEntity
  8
Layer 1
 62
     7
420
 16777215
370
     9
100
AcDbSpline
210
0.0
220
0.0
230
1.0
 70
    11
 71
     3
 72
    17
 73
    13
 74
     0
 42
0.0000000001
 43
0.0000000001
 12
1.0
 22
0.0
 32
0.0
 13
1.0
 23
0.0
 33
0.0
 40
0.0
 40
0.0
 40
0.0
 40
0.0
 40
1.0
 40
1.0
 40
1.0
 40
2.0
 40
2.0
 40
2.0
 40
3.0
 40
3.0
 40
3.0
 40
4.0
 40
4.0
 40
4.0
 40
4.0
 10
298.1361361664793
 20
-549.6411332059677
 30
0.0
 10
298.3659267275861
 20
-550.2627600343786
 30
0.0
 10
299.0561346870952
 20
-550.5804134542434
 30
0.0
 10
299.6777615155023
 20
-550.350622893136
 30
0.0
 10
300.2993984419717
 20
-550.1208285991773
 30
0.0
 10
300.6170380309262
 20
-549.4306142744533
 30
0.0
 10
300.3872474698188
 20
-548.8089874460462
 30
0.0
 10
300.1574569087113
 20
-548.1873606176429
 30
0.0
 10
299.4672489492028
 20
-547.8697071977749
 30
0.0
 10
298.8456120227296
 20
-548.0995014917297
 30
0.0
 10
298.2239851943257
 20
-548.3292920528372
 30
0.0
 10
297.9063456053713
 20
-549.0195063775644
 30
0.0
 10
298.1361361664793
 20
-549.6411332059677
 30
0.0
  0
ENDBLK
  5
64
330
61
100
AcDbEntity
  8
0
100
AcDbBlockEnd
  0
BLOCK
  5
69
330
67
100
AcDbEntity
  8
0
100
AcDbBlockBegin
  2
block 7
 70
     0
 10
0.0
 20
0.0
 30
0.0
  3
block 7
  1

  0
SPLINE
  5
6B
330
67
100
AcDbEntity
  8
Layer 1
 62
     7
420
 16777215
370
     9
100
AcDbSpline
210
0.0
220
0.0
230
1.0
 70
    11
 71
     3
 72
    17
 73
    13
 74
     0
 42
0.0000000001
 43
0.0000000001
 12
1.0
 22
0.0
 32
0.0
 13
1.0
 23
0.0
 33
0.0
 40
0.0
 40
0.0
 40
0.0
 40
0.0
 40
1.0
 40
1.0
 40
1.0
 40
2.0
 40
2.0
 40
2.0
 40
3.0
 40
3.0
 40
3.0
 40
4.0
 40
4.0
 40
4.0
 40
4.0
 10
322.3829618522906
 20
-553.8018732049322
 30
0.0
 10
322.1531712911549
 20
-554.4235000333251
 30
0.0
 10
321.4629633316323
 20
-554.7411534531649
 30
0.0
 10
320.8413365032355
 20
-554.511362892026
 30
0.0
 10
320.2196995767731
 20
-554.281568598043
 30
0.0
 10
319.9020599878501
 20
-553.5913542733017
 30
0.0
 10
320.1318505489896
 20
-552.9697274449087
 30
0.0
 10
320.3616411101253
 20
-552.3481006165157
 30
0.0
 10
321.0518490696479
 20
-552.0304471966721
 30
0.0
 10
321.6734859961102
 20
-552.2602414906589
 30
0.0
 10
322.2951128245032
 20
-552.4900320517946
 30
0.0
 10
322.6127524134262
 20
-553.1802463765359
 30
0.0
 10
322.3829618522906
 20
-553.8018732049322
 30
0.0
  0
SPLINE
  5
6C
330
67
100
AcDbEntity
  8
Layer 1
 62
     7
420
 16777215
370
     9
100
AcDbSpline
210
0.0
220
0.0
230
1.0
 70
    11
 71
     3
 72
    17
 73
    13
 74
     0
 42
0.0000000001
 43
0.0000000001
 12
1.0
 22
0.0
 32
0.0
 13
1.0
 23
0.0
 33
0.0
 40
0.0
 40
0.0
 40
0.0
 40
0.0
 40
1.0
 40
1.0
 40
1.0
 40
2.0
 40
2.0
 40
2.0
 40
3.0
 40
3.0
 40
3.0
 40
4.0
 40
4.0
 40
4.0
 40
4.0
 10
311.1273750415798
 20
-549.6411332062609
 30
0.0
 10
310.8975844804442
 20
-550.2627600346572
 30
0.0
 10
310.2073765209183
 20
-550.5804134544936
 30
0.0
 10
309.5857496925215
 20
-550.3506228933612
 30
0.0
 10
308.9641127660624
 20
-550.1208285993711
 30
0.0
 10
308.64647317714
 20
-549.4306142746336
 30
0.0
 10
308.876263738275
 20
-548.8089874462368
 30
0.0
 10
309.1060542994113
 20
-548.1873606178438
 30
0.0
 10
309.7962622589371
 20
-547.869707198004
 30
0.0
 10
310.4178991854001
 20
-548.099501491991
 30
0.0
 10
311.0395260137931
 20
-548.3292920531266
 30
0.0
 10
311.3571656027154
 20
-549.019506377868
 30
0.0
 10
311.1273750415798
 20
-549.6411332062609
 30
0.0
  0
ENDBLK
  5
6A
330
67
100
AcDbEntity
  8
0
100
AcDbBlockEnd
  0
BLOCK
  5
75
330
73
100
AcDbEntity
  8
0
100
AcDbBlockBegin
  2
block 8
 70
     0
 10
0.0
 20
0.0
 30
0.0
  3
block 8
  1

  0
INSERT
  5
78
330
73
100
AcDbEntity
  8
Layer 1
100
AcDbBlockReference
  2
block 9
 10
0.0
 20
0.0
 30
0.0
  0
INSERT
  5
7E
330
73
100
AcDbEntity
  8
Layer 1
100
AcDbBlockReference
  2
block 10
 10
0.0
 20
0.0
 30
0.0
  0
ENDBLK
  5
76
330
73
100
AcDbEntity
  8
0
100
AcDbBlockEnd
  0
BLOCK
  5
79
330
77
100
AcDbEntity
  8
0
100
AcDbBlockBegin
  2
block 9
 70
     0
 10
0.0
 20
0.0
 30
0.0
  3
block 9
  1

  0
SPLINE
  5
7B
330
77
100
AcDbEntity
  8
Layer 1
 62
     7
420
 16777215
370
     9
100
AcDbSpline
210
0.0
220
0.0
230
1.0
 70
    11
 71
     3
 72
    17
 73
    13
 74
     0
 42
0.0000000001
 43
0.0000000001
 12
1.0
 22
0.0
 32
0.0
 13
1.0
 23
0.0
 33
0.0
 40
0.0
 40
0.0
 40
0.0
 40
0.0
 40
1.0
 40
1.0
 40
1.0
 40
2.0
 40
2.0
 40
2.0
 40
3.0
 40
3.0
 40
3.0
 40
4.0
 40
4.0
 40
4.0
 40
4.0
 10
401.7690052875214
 20
-553.8018732041352
 30
0.0
 10
401.9987958486288
 20
-554.4235000325384
 30
0.0
 10
402.6890038081373
 20
-554.7411534524102
 30
0.0
 10
403.3106306365444
 20
-554.511362891299
 30
0.0
 10
403.9322675630144
 20
-554.281568597341
 30
0.0
 10
404.2499071519689
 20
-553.5913542726208
 30
0.0
 10
404.0201165908614
 20
-552.9697274442137
 30
0.0
 10
403.790326029754
 20
-552.3481006158066
 30
0.0
 10
403.1001180702417
 20
-552.0304471959348
 30
0.0
 10
402.4784811437723
 20
-552.2602414898935
 30
0.0
 10
401.8568543153684
 20
-552.4900320510009
 30
0.0
 10
401.5392147264139
 20
-553.1802463757281
 30
0.0
 10
401.7690052875214
 20
-553.8018732041352
 30
0.0
  0
SPLINE
  5
7C
330
77
100
AcDbEntity
  8
Layer 1
 62
     7
420
 16777215
370
     9
100
AcDbSpline
210
0.0
220
0.0
230
1.0
 70
    11
 71
     3
 72
    17
 73
    13
 74
     0
 42
0.0000000001
 43
0.0000000001
 12
1.0
 22
0.0
 32
0.0
 13
1.0
 23
0.0
 33
0.0
 40
0.0
 40
0.0
 40
0.0
 40
0.0
 40
1.0
 40
1.0
 40
1.0
 40
2.0
 40
2.0
 40
2.0
 40
3.0
 40
3.0
 40
3.0
 40
4.0
 40
4.0
 40
4.0
 40
4.0
 10
413.0245920984195
 20
-549.6411332059677
 30
0.0
 10
413.2543826595263
 20
-550.2627600343786
 30
0.0
 10
413.9445906190348
 20
-550.5804134542434
 30
0.0
 10
414.5662174474419
 20
-550.350622893136
 30
0.0
 10
415.1878543739119
 20
-550.1208285991773
 30
0.0
 10
415.5054939628664
 20
-549.4306142744533
 30
0.0
 10
415.2757034017589
 20
-548.8089874460462
 30
0.0
 10
415.0459128406515
 20
-548.1873606176429
 30
0.0
 10
414.355704881143
 20
-547.8697071977749
 30
0.0
 10
413.7340679546698
 20
-548.0995014917297
 30
0.0
 10
413.1124411262659
 20
-548.3292920528372
 30
0.0
 10
412.7948015373115
 20
-549.0195063775644
 30
0.0
 10
413.0245920984195
 20
-549.6411332059677
 30
0.0
  0
ENDBLK
  5
7A
330
77
100
AcDbEntity
  8
0
100
AcDbBlockEnd
  0
BLOCK
  5
7F
330
7D
100
AcDbEntity
  8
0
100
AcDbBlockBegin
  2
block 10
 70
     0
 10
0.0
 20
0.0
 30
0.0
  3
block 10
  1

  0
SPLINE
  5
81
330
7D
100
AcDbEntity
  8
Layer 1
 62
     7
420
 16777215
370
     9
100
AcDbSpline
210
0.0
220
0.0
230
1.0
 70
    11
 71
     3
 72
    17
 73
    13
 74
     0
 42
0.0000000001
 43
0.0000000001
 12
1.0
 22
0.0
 32
0.0
 13
1.0
 23
0.0
 33
0.0
 40
0.0
 40
0.0
 40
0.0
 40
0.0
 40
1.0
 40
1.0
 40
1.0
 40
2.0
 40
2.0
 40
2.0
 40
3.0
 40
3.0
 40
3.0
 40
4.0
 40
4.0
 40
4.0
 40
4.0
 10
437.2714177842307
 20
-553.8018732049322
 30
0.0
 10
437.0416272230951
 20
-554.4235000333251
 30
0.0
 10
436.3514192635725
 20
-554.7411534531649
 30
0.0
 10
435.7297924351756
 20
-554.511362892026
 30
0.0
 10
435.1081555087133
 20
-554.281568598043
 30
0.0
 10
434.7905159197903
 20
-553.5913542733017
 30
0.0
 10
435.0203064809298
 20
-552.9697274449087
 30
0.0
 10
435.2500970420655
 20
-552.3481006165157
 30
0.0
 10
435.9403050015874
 20
-552.0304471966721
 30
0.0
 10
436.5619419280504
 20
-552.2602414906589
 30
0.0
 10
437.1835687564434
 20
-552.4900320517946
 30
0.0
 10
437.5012083453664
 20
-553.1802463765359
 30
0.0
 10
437.2714177842307
 20
-553.8018732049322
 30
0.0
  0
SPLINE
  5
82
330
7D
100
AcDbEntity
  8
Layer 1
 62
     7
420
 16777215
370
     9
100
AcDbSpline
210
0.0
220
0.0
230
1.0
 70
    11
 71
     3
 72
    17
 73
    13
 74
     0
 42
0.0000000001
 43
0.0000000001
 12
1.0
 22
0.0
 32
0.0
 13
1.0
 23
0.0
 33
0.0
 40
0.0
 40
0.0
 40
0.0
 40
0.0
 40
1.0
 40
1.0
 40
1.0
 40
2.0
 40
2.0
 40
2.0
 40
3.0
 40
3.0
 40
3.0
 40
4.0
 40
4.0
 40
4.0
 40
4.0
 10
426.01583097352
 20
-549.6411332062609
 30
0.0
 10
425.7860404123844
 20
-550.2627600346572
 30
0.0
 10
425.0958324528585
 20
-550.5804134544936
 30
0.0
 10
424.4742056244617
 20
-550.3506228933612
 30
0.0
 10
423.8525686980026
 20
-550.1208285993711
 30
0.0
 10
423.5349291090795
 20
-549.4306142746336
 30
0.0
 10
423.7647196702152
 20
-548.8089874462368
 30
0.0
 10
423.9945102313509
 20
-548.1873606178438
 30
0.0
 10
424.6847181908773
 20
-547.869707198004
 30
0.0
 10
425.3063551173403
 20
-548.099501491991
 30
0.0
 10
425.9279819457333
 20
-548.3292920531266
 30
0.0
 10
426.2456215346556
 20
-549.019506377868
 30
0.0
 10
426.01583097352
 20
-549.6411332062609
 30
0.0
  0
ENDBLK
  5
80
330
7D
100
AcDbEntity
  8
0
100
AcDbBlockEnd
  0
BLOCK
  5
8B
330
89
100
AcDbEntity
  8
0
100
AcDbBlockBegin
  2
block 11
 70
     0
 10
0.0
 20
0.0
 30
0.0
  3
block 11
  1

  0
INSERT
  5
8E
330
89
100
AcDbEntity
  8
Layer 1
100
AcDbBlockReference
  2
block 12
 10
0.0
 20
0.0
 30
0.0
  0
INSERT
  5
94
330
89
100
AcDbEntity
  8
Layer 1
100
AcDbBlockReference
  2
block 13
 10
0.0
 20
0.0
 30
0.0
  0
ENDBLK
  5
8C
330
89
100
AcDbEntity
  8
0
100
AcDbBlockEnd
  0
BLOCK
  5
8F
330
8D
100
AcDbEntity
  8
0
100
AcDbBlockBegin
  2
block 12
 70
     0
 10
0.0
 20
0.0
 30
0.0
  3
block 12
  1

  0
SPLINE
  5
91
330
8D
100
AcDbEntity
  8
Layer 1
 62
     7
420
 16777215
370
     9
100
AcDbSpline
210
0.0
220
0.0
230
1.0
 70
    11
 71
     3
 72
    17
 73
    13
 74
     0
 42
0.0000000001
 43
0.0000000001
 12
1.0
 22
0.0
 32
0.0
 13
1.0
 23
0.0
 33
0.0
 40
0.0
 40
0.0
 40
0.0
 40
0.0
 40
1.0
 40
1.0
 40
1.0
 40
2.0
 40
2.0
 40
2.0
 40
3.0
 40
3.0
 40
3.0
 40
4.0
 40
4.0
 40
4.0
 40
4.0
 10
521.6205358203906
 20
-553.8018732041352
 30
0.0
 10
521.850326381498
 20
-554.4235000325384
 30
0.0
 10
522.5405343410065
 20
-554.7411534524102
 30
0.0
 10
523.1621611694136
 20
-554.511362891299
 30
0.0
 10
523.7837980958836
 20
-554.281568597341
 30
0.0
 10
524.1014376848375
 20
-553.5913542726208
 30
0.0
 10
523.87164712373
 20
-552.9697274442137
 30
0.0
 10
523.6418565626233
 20
-552.3481006158066
 30
0.0
 10
522.9516486031109
 20
-552.0304471959348
 30
0.0
 10
522.3300116766409
 20
-552.2602414898935
 30
0.0
 10
521.7083848482376
 20
-552.4900320510009
 30
0.0
 10
521.3907452592831
 20
-553.1802463757281
 30
0.0
 10
521.6205358203906
 20
-553.8018732041352
 30
0.0
  0
SPLINE
  5
92
330
8D
100
AcDbEntity
  8
Layer 1
 62
     7
420
 16777215
370
     9
100
AcDbSpline
210
0.0
220
0.0
230
1.0
 70
    11
 71
     3
 72
    17
 73
    13
 74
     0
 42
0.0000000001
 43
0.0000000001
 12
1.0
 22
0.0
 32
0.0
 13
1.0
 23
0.0
 33
0.0
 40
0.0
 40
0.0
 40
0.0
 40
0.0
 40
1.0
 40
1.0
 40
1.0
 40
2.0
 40
2.0
 40
2.0
 40
3.0
 40
3.0
 40
3.0
 40
4.0
 40
4.0
 40
4.0
 40
4.0
 10
532.876122631288
 20
-549.6411332059677
 30
0.0
 10
533.1059131923955
 20
-550.2627600343786
 30
0.0
 10
533.796121151904
 20
-550.5804134542434
 30
0.0
 10
534.4177479803111
 20
-550.350622893136
 30
0.0
 10
535.0393849067812
 20
-550.1208285991773
 30
0.0
 10
535.3570244957356
 20
-549.4306142744533
 30
0.0
 10
535.1272339346282
 20
-548.8089874460462
 30
0.0
 10
534.8974433735207
 20
-548.1873606176429
 30
0.0
 10
534.2072354140122
 20
-547.8697071977749
 30
0.0
 10
533.5855984875384
 20
-548.0995014917297
 30
0.0
 10
532.9639716591352
 20
-548.3292920528372
 30
0.0
 10
532.6463320701806
 20
-549.0195063775644
 30
0.0
 10
532.876122631288
 20
-549.6411332059677
 30
0.0
  0
ENDBLK
  5
90
330
8D
100
AcDbEntity
  8
0
100
AcDbBlockEnd
  0
BLOCK
  5
95
330
93
100
AcDbEntity
  8
0
100
AcDbBlockBegin
  2
block 13
 70
     0
 10
0.0
 20
0.0
 30
0.0
  3
block 13
  1

  0
SPLINE
  5
97
330
93
100
AcDbEntity
  8
Layer 1
 62
     7
420
 16777215
370
     9
100
AcDbSpline
210
0.0
220
0.0
230
1.0
 70
    11
 71
     3
 72
    17
 73
    13
 74
     0
 42
0.0000000001
 43
0.0000000001
 12
1.0
 22
0.0
 32
0.0
 13
1.0
 23
0.0
 33
0.0
 40
0.0
 40
0.0
 40
0.0
 40
0.0
 40
1.0
 40
1.0
 40
1.0
 40
2.0
 40
2.0
 40
2.0
 40
3.0
 40
3.0
 40
3.0
 40
4.0
 40
4.0
 40
4.0
 40
4.0
 10
557.1229483170993
 20
-553.8018732049322
 30
0.0
 10
556.8931577559637
 20
-554.4235000333251
 30
0.0
 10
556.2029497964417
 20
-554.7411534531649
 30
0.0
 10
555.5813229680449
 20
-554.511362892026
 30
0.0
 10
554.9596860415819
 20
-554.281568598043
 30
0.0
 10
554.6420464526595
 20
-553.5913542733017
 30
0.0
 10
554.8718370137984
 20
-552.9697274449087
 30
0.0
 10
555.101627574934
 20
-552.3481006165157
 30
0.0
 10
555.7918355344566
 20
-552.0304471966721
 30
0.0
 10
556.4134724609196
 20
-552.2602414906589
 30
0.0
 10
557.0350992893126
 20
-552.4900320517946
 30
0.0
 10
557.352738878235
 20
-553.1802463765359
 30
0.0
 10
557.1229483170993
 20
-553.8018732049322
 30
0.0
  0
SPLINE
  5
98
330
93
100
AcDbEntity
  8
Layer 1
 62
     7
420
 16777215
370
     9
100
AcDbSpline
210
0.0
220
0.0
230
1.0
 70
    11
 71
     3
 72
    17
 73
    13
 74
     0
 42
0.0000000001
 43
0.0000000001
 12
1.0
 22
0.0
 32
0.0
 13
1.0
 23
0.0
 33
0.0
 40
0.0
 40
0.0
 40
0.0
 40
0.0
 40
1.0
 40
1.0
 40
1.0
 40
2.0
 40
2.0
 40
2.0
 40
3.0
 40
3.0
 40
3.0
 40
4.0
 40
4.0
 40
4.0
 40
4.0
 10
545.8673615063892
 20
-549.6411332062609
 30
0.0
 10
545.6375709452535
 20
-550.2627600346572
 30
0.0
 10
544.9473629857271
 20
-550.5804134544936
 30
0.0
 10
544.3257361573309
 20
-550.3506228933612
 30
0.0
 10
543.7040992308717
 20
-550.1208285993711
 30
0.0
 10
543.3864596419487
 20
-549.4306142746336
 30
0.0
 10
543.6162502030844
 20
-548.8089874462368
 30
0.0
 10
543.8460407642201
 20
-548.1873606178438
 30
0.0
 10
544.5362487237459
 20
-547.869707198004
 30
0.0
 10
545.1578856502089
 20
-548.099501491991
 30
0.0
 10
545.7795124786019
 20
-548.3292920531266
 30
0.0
 10
546.0971520675249
 20
-549.019506377868
 30
0.0
 10
545.8673615063892
 20
-549.6411332062609
 30
0.0
  0
ENDBLK
  5
96
330
93
100
AcDbEntity
  8
0
100
AcDbBlockEnd
  0
BLOCK
  5
A1
330
9F
100
AcDbEntity
  8
0
100
AcDbBlockBegin
  2
block 14
 70
     0
 10
0.0
 20
0.0
 30
0.0
  3
block 14
  1

  0
INSERT
  5
A4
330
9F
100
AcDbEntity
  8
Layer 1
100
AcDbBlockReference
  2
block 15
 10
0.0
 20
0.0
 30
0.0
  0
INSERT
  5
AA
330
9F
100
AcDbEntity
  8
Layer 1
100
AcDbBlockReference
  2
block 16
 10
0.0
 20
0.0
 30
0.0
  0
ENDBLK
  5
A2
330
9F
100
AcDbEntity
  8
0
100
AcDbBlockEnd
  0
BLOCK
  5
A5
330
A3
100
AcDbEntity
  8
0
100
AcDbBlockBegin
  2
block 15
 70
     0
 10
0.0
 20
0.0
 30
0.0
  3
block 15
  1

  0
SPLINE
  5
A7
330
A3
100
AcDbEntity
  8
Layer 1
 62
     7
420
 16777215
370
     9
100
AcDbSpline
210
0.0
220
0.0
230
1.0
 70
    11
 71
     3
 72
    17
 73
    13
 74
     0
 42
0.0000000001
 43
0.0000000001
 12
1.0
 22
0.0
 32
0.0
 13
1.0
 23
0.0
 33
0.0
 40
0.0
 40
0.0
 40
0.0
 40
0.0
 40
1.0
 40
1.0
 40
1.0
 40
2.0
 40
2.0
 40
2.0
 40
3.0
 40
3.0
 40
3.0
 40
4.0
 40
4.0
 40
4.0
 40
4.0
 10
631.609022750572
 20
-553.8018732041352
 30
0.0
 10
631.8388133116794
 20
-554.4235000325384
 30
0.0
 10
632.5290212711878
 20
-554.7411534524102
 30
0.0
 10
633.150648099595
 20
-554.511362891299
 30
0.0
 10
633.7722850260644
 20
-554.281568597341
 30
0.0
 10
634.0899246150188
 20
-553.5913542726208
 30
0.0
 10
633.8601340539115
 20
-552.9697274442137
 30
0.0
 10
633.630343492804
 20
-552.3481006158066
 30
0.0
 10
632.9401355332923
 20
-552.0304471959348
 30
0.0
 10
632.3184986068222
 20
-552.2602414898935
 30
0.0
 10
631.696871778419
 20
-552.4900320510009
 30
0.0
 10
631.3792321894646
 20
-553.1802463757281
 30
0.0
 10
631.609022750572
 20
-553.8018732041352
 30
0.0
  0
SPLINE
  5
A8
330
A3
100
AcDbEntity
  8
Layer 1
 62
     7
420
 16777215
370
     9
100
AcDbSpline
210
0.0
220
0.0
230
1.0
 70
    11
 71
     3
 72
    17
 73
    13
 74
     0
 42
0.0000000001
 43
0.0000000001
 12
1.0
 22
0.0
 32
0.0
 13
1.0
 23
0.0
 33
0.0
 40
0.0
 40
0.0
 40
0.0
 40
0.0
 40
1.0
 40
1.0
 40
1.0
 40
2.0
 40
2.0
 40
2.0
 40
3.0
 40
3.0
 40
3.0
 40
4.0
 40
4.0
 40
4.0
 40
4.0
 10
642.8646095614695
 20
-549.6411332059677
 30
0.0
 10
643.0944001225769
 20
-550.2627600343786
 30
0.0
 10
643.7846080820854
 20
-550.5804134542434
 30
0.0
 10
644.4062349104925
 20
-550.350622893136
 30
0.0
 10
645.0278718369625
 20
-550.1208285991773
 30
0.0
 10
645.3455114259164
 20
-549.4306142744533
 30
0.0
 10
645.1157208648095
 20
-548.8089874460462
 30
0.0
 10
644.8859303037015
 20
-548.1873606176429
 30
0.0
 10
644.1957223441937
 20
-547.8697071977749
 30
0.0
 10
643.5740854177197
 20
-548.0995014917297
 30
0.0
 10
642.9524585893165
 20
-548.3292920528372
 30
0.0
 10
642.6348190003621
 20
-549.0195063775644
 30
0.0
 10
642.8646095614695
 20
-549.6411332059677
 30
0.0
  0
ENDBLK
  5
A6
330
A3
100
AcDbEntity
  8
0
100
AcDbBlockEnd
  0
BLOCK
  5
AB
330
A9
100
AcDbEntity
  8
0
100
AcDbBlockBegin
  2
block 16
 70
     0
 10
0.0
 20
0.0
 30
0.0
  3
block 16
  1

  0
SPLINE
  5
AD
330
A9
100
AcDbEntity
  8
Layer 1
 62
     7
420
 16777215
370
     9
100
AcDbSpline
210
0.0
220
0.0
230
1.0
 70
    11
 71
     3
 72
    17
 73
    13
 74
     0
 42
0.0000000001
 43
0.0000000001
 12
1.0
 22
0.0
 32
0.0
 13
1.0
 23
0.0
 33
0.0
 40
0.0
 40
0.0
 40
0.0
 40
0.0
 40
1.0
 40
1.0
 40
1.0
 40
2.0
 40
2.0
 40
2.0
 40
3.0
 40
3.0
 40
3.0
 40
4.0
 40
4.0
 40
4.0
 40
4.0
 10
667.1114352472807
 20
-553.8018732049322
 30
0.0
 10
666.881644686145
 20
-554.4235000333251
 30
0.0
 10
666.1914367266224
 20
-554.7411534531649
 30
0.0
 10
665.5698098982263
 20
-554.511362892026
 30
0.0
 10
664.9481729717633
 20
-554.281568598043
 30
0.0
 10
664.6305333828409
 20
-553.5913542733017
 30
0.0
 10
664.8603239439798
 20
-552.9697274449087
 30
0.0
 10
665.0901145051155
 20
-552.3481006165157
 30
0.0
 10
665.7803224646381
 20
-552.0304471966721
 30
0.0
 10
666.401959391101
 20
-552.2602414906589
 30
0.0
 10
667.023586219494
 20
-552.4900320517946
 30
0.0
 10
667.3412258084163
 20
-553.1802463765359
 30
0.0
 10
667.1114352472807
 20
-553.8018732049322
 30
0.0
  0
SPLINE
  5
AE
330
A9
100
AcDbEntity
  8
Layer 1
 62
     7
420
 16777215
370
     9
100
AcDbSpline
210
0.0
220
0.0
230
1.0
 70
    11
 71
     3
 72
    17
 73
    13
 74
     0
 42
0.0000000001
 43
0.0000000001
 12
1.0
 22
0.0
 32
0.0
 13
1.0
 23
0.0
 33
0.0
 40
0.0
 40
0.0
 40
0.0
 40
0.0
 40
1.0
 40
1.0
 40
1.0
 40
2.0
 40
2.0
 40
2.0
 40
3.0
 40
3.0
 40
3.0
 40
4.0
 40
4.0
 40
4.0
 40
4.0
 10
655.85584843657
 20
-549.6411332062609
 30
0.0
 10
655.6260578754343
 20
-550.2627600346572
 30
0.0
 10
654.9358499159085
 20
-550.5804134544936
 30
0.0
 10
654.3142230875123
 20
-550.3506228933612
 30
0.0
 10
653.6925861610525
 20
-550.1208285993711
 30
0.0
 10
653.3749465721302
 20
-549.4306142746336
 30
0.0
 10
653.6047371332659
 20
-548.8089874462368
 30
0.0
 10
653.8345276944015
 20
-548.1873606178438
 30
0.0
 10
654.5247356539273
 20
-547.869707198004
 30
0.0
 10
655.1463725803902
 20
-548.099501491991
 30
0.0
 10
655.7679994087832
 20
-548.3292920531266
 30
0.0
 10
656.0856389977056
 20
-549.019506377868
 30
0.0
 10
655.85584843657
 20
-549.6411332062609
 30
0.0
  0
ENDBLK
  5
AC
330
A9
100
AcDbEntity
  8
0
100
AcDbBlockEnd
  0
BLOCK
  5
B1
330
AF
100
AcDbEntity
  8
0
100
AcDbBlockBegin
  2
block 17
 70
     0
 10
0.0
 20
0.0
 30
0.0
  3
block 17
  1

  0
SPLINE
  5
B3
330
AF
100
AcDbEntity
  8
Layer 1
 62
   178
420
    65795
370
     9
100
AcDbSpline
210
0.0
220
0.0
230
1.0
 70
    11
 71
     3
 72
    23
 73
    19
 74
     0
 42
0.0000000001
 43
0.0000000001
 12
1.0
 22
0.0
 32
0.0
 13
1.0
 23
0.0
 33
0.0
 40
0.0
 40
0.0
 40
0.0
 40
0.0
 40
1.0
 40
1.0
 40
1.0
 40
2.0
 40
2.0
 40
2.0
 40
3.0
 40
3.0
 40
3.0
 40
4.0
 40
4.0
 40
4.0
 40
5.0
 40
5.0
 40
5.0
 40
6.0
 40
6.0
 40
6.0
 40
6.0
 10
137.1035283595086
 20
-264.9952143348295
 30
0.0
 10
69.06478732834123
 20
-327.7336759619388
 30
0.0
 10
84.62628363521473
 20
-384.8818672725261
 30
0.0
 10
100.4560667530021
 20
-416.0048168225769
 30
0.0
 10
116.2858498707894
 20
-447.1277663726272
 30
0.0
 10
117.8956568636596
 20
-454.6033651934637
 30
0.0
 10
117.8956568636596
 20
-454.6033651934637
 30
0.0
 10
117.8956568636596
 20
-454.6033651934637
 30
0.0
 10
137.1035283595086
 20
-454.6033651934637
 30
0.0
 10
137.1035283595086
 20
-454.6033651934637
 30
0.0
 10
137.1035283595086
 20
-454.6033651934637
 30
0.0
 10
156.3113998553577
 20
-454.6033651934637
 30
0.0
 10
156.3113998553577
 20
-454.6033651934637
 30
0.0
 10
156.3113998553577
 20
-454.6033651934637
 30
0.0
 10
157.9211207208407
 20
-447.1277663726272
 30
0.0
 10
173.7509899660152
 20
-416.0048168225769
 30
0.0
 10
189.5806869564154
 20
-384.8818672725261
 30
0.0
 10
205.1421832632889
 20
-327.7336759619388
 30
0.0
 10
137.1035283595086
 20
-264.9952143348295
 30
0.0
  0
INSERT
  5
B5
330
AF
100
AcDbEntity
  8
Layer 1
100
AcDbBlockReference
  2
block 18
 10
0.0
 20
0.0
 30
0.0
  0
INSERT
  5
BB
330
AF
100
AcDbEntity
  8
Layer 1
100
AcDbBlockReference
  2
block 19
 10
0.0
 20
0.0
 30
0.0
  0
INSERT
  5
C1
330
AF
100
AcDbEntity
  8
Layer 1
100
AcDbBlockReference
  2
block 20
 10
0.0
 20
0.0
 30
0.0
  0
ENDBLK
  5
B2
330
AF
100
AcDbEntity
  8
0
100
AcDbBlockEnd
  0
BLOCK
  5
B6
330
B4
100
AcDbEntity
  8
0
100
AcDbBlockBegin
  2
block 18
 70
     0
 10
0.0
 20
0.0
 30
0.0
  3
block 18
  1

  0
SPLINE
  5
B8
330
B4
100
AcDbEntity
  8
Layer 1
 62
   178
420
    65795
370
     9
100
AcDbSpline
210
0.0
220
0.0
230
1.0
 70
    11
 71
     3
 72
    17
 73
    13
 74
     0
 42
0.0000000001
 43
0.0000000001
 12
1.0
 22
0.0
 32
0.0
 13
1.0
 23
0.0
 33
0.0
 40
0.0
 40
0.0
 40
0.0
 40
0.0
 40
1.0
 40
1.0
 40
1.0
 40
2.0
 40
2.0
 40
2.0
 40
3.0
 40
3.0
 40
3.0
 40
4.0
 40
4.0
 40
4.0
 40
4.0
 10
149.6008873761895
 20
-449.0945493854724
 30
0.0
 10
149.6452333241851
 20
-449.7558035368139
 30
0.0
 10
150.2172310191297
 20
-450.2559128843608
 30
0.0
 10
150.8784851704702
 20
-450.2115669363646
 30
0.0
 10
151.5397500636045
 20
-450.1672202679848
 30
0.0
 10
152.0398479489747
 20
-449.5952125516276
 30
0.0
 10
151.9955020009801
 20
-448.9339584002894
 30
0.0
 10
151.9511560529841
 20
-448.2727042489479
 30
0.0
 10
151.3791583580395
 20
-447.7725949014042
 30
0.0
 10
150.7178934649033
 20
-447.8169415697801
 30
0.0
 10
150.0566393135637
 20
-447.8612875177732
 30
0.0
 10
149.5565414281929
 20
-448.4332952341304
 30
0.0
 10
149.6008873761895
 20
-449.0945493854724
 30
0.0
  0
SPLINE
  5
B9
330
B4
100
AcDbEntity
  8
Layer 1
 62
   178
420
    65795
370
     9
100
AcDbSpline
210
0.0
220
0.0
230
1.0
 70
    11
 71
     3
 72
    17
 73
    13
 74
     0
 42
0.0000000001
 43
0.0000000001
 12
1.0
 22
0.0
 32
0.0
 13
1.0
 23
0.0
 33
0.0
 40
0.0
 40
0.0
 40
0.0
 40
0.0
 40
1.0
 40
1.0
 40
1.0
 40
2.0
 40
2.0
 40
2.0
 40
3.0
 40
3.0
 40
3.0
 40
4.0
 40
4.0
 40
4.0
 40
4.0
 10
124.6061059197633
 20
-449.0945493863086
 30
0.0
 10
124.5617599717375
 20
-449.7558035376429
 30
0.0
 10
123.9897622767705
 20
-450.2559128851649
 30
0.0
 10
123.3285081254329
 20
-450.2115669371404
 30
0.0
 10
122.6672432323005
 20
-450.167220268733
 30
0.0
 10
122.167145346956
 20
-449.5952125523508
 30
0.0
 10
122.2114912949801
 20
-448.9339584010126
 30
0.0
 10
122.2558372430053
 20
-448.2727042496743
 30
0.0
 10
122.8278349379723
 20
-447.7725949021556
 30
0.0
 10
123.4890998311067
 20
-447.816941570563
 30
0.0
 10
124.1503539824446
 20
-447.8612875185875
 30
0.0
 10
124.6504518677897
 20
-448.4332952349665
 30
0.0
 10
124.6061059197633
 20
-449.0945493863086
 30
0.0
  0
ENDBLK
  5
B7
330
B4
100
AcDbEntity
  8
0
100
AcDbBlockEnd
  0
BLOCK
  5
BC
330
BA
100
AcDbEntity
  8
0
100
AcDbBlockBegin
  2
block 19
 70
     0
 10
0.0
 20
0.0
 30
0.0
  3
block 19
  1

  0
SPLINE
  5
BE
330
BA
100
AcDbEntity
  8
Layer 1
 62
   178
420
    65795
370
     9
100
AcDbSpline
210
0.0
220
0.0
230
1.0
 70
    11
 71
     3
 72
    17
 73
    13
 74
     0
 42
0.0000000001
 43
0.0000000001
 12
1.0
 22
0.0
 32
0.0
 13
1.0
 23
0.0
 33
0.0
 40
0.0
 40
0.0
 40
0.0
 40
0.0
 40
1.0
 40
1.0
 40
1.0
 40
2.0
 40
2.0
 40
2.0
 40
3.0
 40
3.0
 40
3.0
 40
4.0
 40
4.0
 40
4.0
 40
4.0
 10
139.6117032856943
 20
-389.8568863903614
 30
0.0
 10
139.6117032856943
 20
-390.1330287651932
 30
0.0
 10
139.3878456606502
 20
-390.3568863902347
 30
0.0
 10
139.1117032858197
 20
-390.3568863902347
 30
0.0
 10
138.8355609109886
 20
-390.3568863902347
 30
0.0
 10
138.6117032859445
 20
-390.1330287651932
 30
0.0
 10
138.6117032859445
 20
-389.8568863903614
 30
0.0
 10
138.6117032859445
 20
-389.5807440155335
 30
0.0
 10
138.8355609109886
 20
-389.3568863904849
 30
0.0
 10
139.1117032858197
 20
-389.3568863904849
 30
0.0
 10
139.3878456606502
 20
-389.3568863904849
 30
0.0
 10
139.6117032856943
 20
-389.5807440155335
 30
0.0
 10
139.6117032856943
 20
-389.8568863903614
 30
0.0
  0
SPLINE
  5
BF
330
BA
100
AcDbEntity
  8
Layer 1
 62
   178
420
    65795
370
     9
100
AcDbSpline
210
0.0
220
0.0
230
1.0
 70
    11
 71
     3
 72
    17
 73
    13
 74
     0
 42
0.0000000001
 43
0.0000000001
 12
1.0
 22
0.0
 32
0.0
 13
1.0
 23
0.0
 33
0.0
 40
0.0
 40
0.0
 40
0.0
 40
0.0
 40
1.0
 40
1.0
 40
1.0
 40
2.0
 40
2.0
 40
2.0
 40
3.0
 40
3.0
 40
3.0
 40
4.0
 40
4.0
 40
4.0
 40
4.0
 10
134.5952900102637
 20
-389.8568863902523
 30
0.0
 10
134.5952900102515
 20
-390.1330287650802
 30
0.0
 10
134.8191476352853
 20
-390.3568863901359
 30
0.0
 10
135.0952900101158
 20
-390.35688639015
 30
0.0
 10
135.3714323849469
 20
-390.3568863901571
 30
0.0
 10
135.5952900100013
 20
-390.1330287651226
 30
0.0
 10
135.5952900100135
 20
-389.8568863902947
 30
0.0
 10
135.5952900100256
 20
-389.580744015463
 30
0.0
 10
135.3714323849921
 20
-389.3568863904073
 30
0.0
 10
135.0952900101607
 20
-389.3568863903964
 30
0.0
 10
134.8191476353302
 20
-389.3568863903823
 30
0.0
 10
134.5952900102759
 20
-389.5807440154206
 30
0.0
 10
134.5952900102637
 20
-389.8568863902523
 30
0.0
  0
ENDBLK
  5
BD
330
BA
100
AcDbEntity
  8
0
100
AcDbBlockEnd
  0
BLOCK
  5
C2
330
C0
100
AcDbEntity
  8
0
100
AcDbBlockBegin
  2
block 20
 70
     0
 10
0.0
 20
0.0
 30
0.0
  3
block 20
  1

  0
SPLINE
  5
C4
330
C0
100
AcDbEntity
  8
Layer 1
 62
   178
420
    65795
370
     9
100
AcDbSpline
210
0.0
220
0.0
230
1.0
 70
    11
 71
     3
 72
    17
 73
    13
 74
     0
 42
0.0000000001
 43
0.0000000001
 12
1.0
 22
0.0
 32
0.0
 13
1.0
 23
0.0
 33
0.0
 40
0.0
 40
0.0
 40
0.0
 40
0.0
 40
1.0
 40
1.0
 40
1.0
 40
2.0
 40
2.0
 40
2.0
 40
3.0
 40
3.0
 40
3.0
 40
4.0
 40
4.0
 40
4.0
 40
4.0
 10
139.6117032856943
 20
-290.1237535515625
 30
0.0
 10
139.6117032856943
 20
-290.3998959263929
 30
0.0
 10
139.3878456606502
 20
-290.6237535514371
 30
0.0
 10
139.1117032858197
 20
-290.6237535514371
 30
0.0
 10
138.8355609109886
 20
-290.6237535514371
 30
0.0
 10
138.6117032859445
 20
-290.3998959263929
 30
0.0
 10
138.6117032859445
 20
-290.1237535515625
 30
0.0
 10
138.6117032859445
 20
-289.847611176732
 30
0.0
 10
138.8355609109886
 20
-289.6237535516879
 30
0.0
 10
139.1117032858197
 20
-289.6237535516879
 30
0.0
 10
139.3878456606502
 20
-289.6237535516879
 30
0.0
 10
139.6117032856943
 20
-289.847611176732
 30
0.0
 10
139.6117032856943
 20
-290.1237535515625
 30
0.0
  0
SPLINE
  5
C5
330
C0
100
AcDbEntity
  8
Layer 1
 62
   178
420
    65795
370
     9
100
AcDbSpline
210
0.0
220
0.0
230
1.0
 70
    11
 71
     3
 72
    17
 73
    13
 74
     0
 42
0.0000000001
 43
0.0000000001
 12
1.0
 22
0.0
 32
0.0
 13
1.0
 23
0.0
 33
0.0
 40
0.0
 40
0.0
 40
0.0
 40
0.0
 40
1.0
 40
1.0
 40
1.0
 40
2.0
 40
2.0
 40
2.0
 40
3.0
 40
3.0
 40
3.0
 40
4.0
 40
4.0
 40
4.0
 40
4.0
 10
134.5952900102637
 20
-290.1237535514495
 30
0.0
 10
134.5952900102515
 20
-290.3998959262813
 30
0.0
 10
134.8191476352853
 20
-290.6237535513357
 30
0.0
 10
135.0952900101158
 20
-290.6237535513472
 30
0.0
 10
135.3714323849469
 20
-290.62375355136
 30
0.0
 10
135.5952900100013
 20
-290.3998959263262
 30
0.0
 10
135.5952900100135
 20
-290.1237535514945
 30
0.0
 10
135.5952900100256
 20
-289.847611176664
 30
0.0
 10
135.3714323849921
 20
-289.6237535516096
 30
0.0
 10
135.0952900101607
 20
-289.623753551598
 30
0.0
 10
134.8191476353302
 20
-289.6237535515853
 30
0.0
 10
134.5952900102759
 20
-289.8476111766191
 30
0.0
 10
134.5952900102637
 20
-290.1237535514495
 30
0.0
  0
ENDBLK
  5
C3
330
C0
100
AcDbEntity
  8
0
100
AcDbBlockEnd
  0
BLOCK
  5
C8
330
C6
100
AcDbEntity
  8
0
100
AcDbBlockBegin
  2
block 21
 70
     0
 10
0.0
 20
0.0
 30
0.0
  3
block 21
  1

  0
POLYLINE
  5
CA
330
C6
100
AcDbEntity
  8
Layer 1
 62
     7
420
 16777215
370
     9
100
AcDb2dPolyline
 66
     1
 10
0.0
 20
0.0
 30
0.0
  0
VERTEX
  5
CB
330
CA
100
AcDbEntity
  8
Layer 1
 62
     7
420
 16777215
370
     9
100
AcDbVertex
100
AcDb2dVertex
 10
131.5154966493756
 20
-456.0145651930705
 30
0.0
  0
VERTEX
  5
CC
330
CA
100
AcDbEntity
  8
Layer 1
 62
     7
420
 16777215
370
     9
100
AcDbVertex
100
AcDb2dVertex
 10
137.103496647978
 20
-414.9337329795511
 30
0.0
  0
SEQEND
  5
CD
330
CA
100
AcDbEntity
  8
Layer 1
 62
     7
420
 16777215
370
     9
  0
POLYLINE
  5
CE
330
C6
100
AcDbEntity
  8
Layer 1
 62
     7
420
 16777215
370
     9
100
AcDb2dPolyline
 66
     1
 10
0.0
 20
0.0
 30
0.0
  0
VERTEX
  5
CF
330
CE
100
AcDbEntity
  8
Layer 1
 62
     7
420
 16777215
370
     9
100
AcDbVertex
100
AcDb2dVertex
 10
137.1034966479793
 20
-414.9337329795511
 30
0.0
  0
VERTEX
  5
D0
330
CE
100
AcDbEntity
  8
Layer 1
 62
     7
420
 16777215
370
     9
100
AcDbVertex
100
AcDb2dVertex
 10
142.6914966465817
 20
-456.0145651930705
 30
0.0
  0
SEQEND
  5
D1
330
CE
100
AcDbEntity
  8
Layer 1
 62
     7
420
 16777215
370
     9
  0
ENDBLK
  5
C9
330
C6
100
AcDbEntity
  8
0
100
AcDbBlockEnd
  0
BLOCK
  5
D4
330
D2
100
AcDbEntity
  8
0
100
AcDbBlockBegin
  2
block 22
 70
     0
 10
0.0
 20
0.0
 30
0.0
  3
block 22
  1

  0
SPLINE
  5
D6
330
D2
100
AcDbEntity
  8
Layer 1
 62
   178
420
    65795
370
     9
100
AcDbSpline
210
0.0
220
0.0
230
1.0
 70
    11
 71
     3
 72
    23
 73
    19
 74
     0
 42
0.0000000001
 43
0.0000000001
 12
1.0
 22
0.0
 32
0.0
 13
1.0
 23
0.0
 33
0.0
 40
0.0
 40
0.0
 40
0.0
 40
0.0
 40
1.0
 40
1.0
 40
1.0
 40
2.0
 40
2.0
 40
2.0
 40
3.0
 40
3.0
 40
3.0
 40
4.0
 40
4.0
 40
4.0
 40
5.0
 40
5.0
 40
5.0
 40
6.0
 40
6.0
 40
6.0
 40
6.0
 10
247.2191121490905
 20
-264.9952143348295
 30
0.0
 10
179.1803711179234
 20
-327.7336759619388
 30
0.0
 10
194.7418674247969
 20
-384.8818672725261
 30
0.0
 10
210.5716505425843
 20
-416.0048168225769
 30
0.0
 10
226.4014336603713
 20
-447.1277663726272
 30
0.0
 10
228.0112406532414
 20
-454.6033651934637
 30
0.0
 10
228.0112406532414
 20
-454.6033651934637
 30
0.0
 10
228.0112406532414
 20
-454.6033651934637
 30
0.0
 10
247.2191121490905
 20
-454.6033651934637
 30
0.0
 10
247.2191121490905
 20
-454.6033651934637
 30
0.0
 10
247.2191121490905
 20
-454.6033651934637
 30
0.0
 10
266.4269836449396
 20
-454.6033651934637
 30
0.0
 10
266.4269836449396
 20
-454.6033651934637
 30
0.0
 10
266.4269836449396
 20
-454.6033651934637
 30
0.0
 10
268.0367045104226
 20
-447.1277663726272
 30
0.0
 10
283.866573755597
 20
-416.0048168225769
 30
0.0
 10
299.6962707459973
 20
-384.8818672725261
 30
0.0
 10
315.2577670528707
 20
-327.7336759619388
 30
0.0
 10
247.2191121490905
 20
-264.9952143348295
 30
0.0
  0
INSERT
  5
D8
330
D2
100
AcDbEntity
  8
Layer 1
100
AcDbBlockReference
  2
block 23
 10
0.0
 20
0.0
 30
0.0
  0
INSERT
  5
DE
330
D2
100
AcDbEntity
  8
Layer 1
100
AcDbBlockReference
  2
block 24
 10
0.0
 20
0.0
 30
0.0
  0
INSERT
  5
E4
330
D2
100
AcDbEntity
  8
Layer 1
100
AcDbBlockReference
  2
block 25
 10
0.0
 20
0.0
 30
0.0
  0
ENDBLK
  5
D5
330
D2
100
AcDbEntity
  8
0
100
AcDbBlockEnd
  0
BLOCK
  5
D9
330
D7
100
AcDbEntity
  8
0
100
AcDbBlockBegin
  2
block 23
 70
     0
 10
0.0
 20
0.0
 30
0.0
  3
block 23
  1

  0
SPLINE
  5
DB
330
D7
100
AcDbEntity
  8
Layer 1
 62
   178
420
    65795
370
     9
100
AcDbSpline
210
0.0
220
0.0
230
1.0
 70
    11
 71
     3
 72
    17
 73
    13
 74
     0
 42
0.0000000001
 43
0.0000000001
 12
1.0
 22
0.0
 32
0.0
 13
1.0
 23
0.0
 33
0.0
 40
0.0
 40
0.0
 40
0.0
 40
0.0
 40
1.0
 40
1.0
 40
1.0
 40
2.0
 40
2.0
 40
2.0
 40
3.0
 40
3.0
 40
3.0
 40
4.0
 40
4.0
 40
4.0
 40
4.0
 10
259.7164711657713
 20
-449.0945493854724
 30
0.0
 10
259.760817113767
 20
-449.7558035368139
 30
0.0
 10
260.3328148087116
 20
-450.2559128843608
 30
0.0
 10
260.9940689600517
 20
-450.2115669363646
 30
0.0
 10
261.6553338531861
 20
-450.1672202679848
 30
0.0
 10
262.1554317385566
 20
-449.5952125516276
 30
0.0
 10
262.1110857905616
 20
-448.9339584002894
 30
0.0
 10
262.066739842566
 20
-448.2727042489479
 30
0.0
 10
261.4947421476214
 20
-447.7725949014042
 30
0.0
 10
260.8334772544851
 20
-447.8169415697801
 30
0.0
 10
260.1722231031457
 20
-447.8612875177732
 30
0.0
 10
259.6721252177745
 20
-448.4332952341304
 30
0.0
 10
259.7164711657713
 20
-449.0945493854724
 30
0.0
  0
SPLINE
  5
DC
330
D7
100
AcDbEntity
  8
Layer 1
 62
   178
420
    65795
370
     9
100
AcDbSpline
210
0.0
220
0.0
230
1.0
 70
    11
 71
     3
 72
    17
 73
    13
 74
     0
 42
0.0000000001
 43
0.0000000001
 12
1.0
 22
0.0
 32
0.0
 13
1.0
 23
0.0
 33
0.0
 40
0.0
 40
0.0
 40
0.0
 40
0.0
 40
1.0
 40
1.0
 40
1.0
 40
2.0
 40
2.0
 40
2.0
 40
3.0
 40
3.0
 40
3.0
 40
4.0
 40
4.0
 40
4.0
 40
4.0
 10
234.7216897093452
 20
-449.0945493863086
 30
0.0
 10
234.6773437613194
 20
-449.7558035376429
 30
0.0
 10
234.1053460663524
 20
-450.2559128851649
 30
0.0
 10
233.4440919150148
 20
-450.2115669371404
 30
0.0
 10
232.7828270218824
 20
-450.167220268733
 30
0.0
 10
232.2827291365375
 20
-449.5952125523508
 30
0.0
 10
232.327075084562
 20
-448.9339584010126
 30
0.0
 10
232.3714210325871
 20
-448.2727042496743
 30
0.0
 10
232.9434187275542
 20
-447.7725949021556
 30
0.0
 10
233.6046836206885
 20
-447.816941570563
 30
0.0
 10
234.2659377720261
 20
-447.8612875185875
 30
0.0
 10
234.7660356573716
 20
-448.4332952349665
 30
0.0
 10
234.7216897093452
 20
-449.0945493863086
 30
0.0
  0
ENDBLK
  5
DA
330
D7
100
AcDbEntity
  8
0
100
AcDbBlockEnd
  0
BLOCK
  5
DF
330
DD
100
AcDbEntity
  8
0
100
AcDbBlockBegin
  2
block 24
 70
     0
 10
0.0
 20
0.0
 30
0.0
  3
block 24
  1

  0
SPLINE
  5
E1
330
DD
100
AcDbEntity
  8
Layer 1
 62
   178
420
    65795
370
     9
100
AcDbSpline
210
0.0
220
0.0
230
1.0
 70
    11
 71
     3
 72
    17
 73
    13
 74
     0
 42
0.0000000001
 43
0.0000000001
 12
1.0
 22
0.0
 32
0.0
 13
1.0
 23
0.0
 33
0.0
 40
0.0
 40
0.0
 40
0.0
 40
0.0
 40
1.0
 40
1.0
 40
1.0
 40
2.0
 40
2.0
 40
2.0
 40
3.0
 40
3.0
 40
3.0
 40
4.0
 40
4.0
 40
4.0
 40
4.0
 10
249.7272870752761
 20
-389.8568863903614
 30
0.0
 10
249.7272870752761
 20
-390.1330287651932
 30
0.0
 10
249.503429450232
 20
-390.3568863902347
 30
0.0
 10
249.2272870754016
 20
-390.3568863902347
 30
0.0
 10
248.9511447005705
 20
-390.3568863902347
 30
0.0
 10
248.7272870755264
 20
-390.1330287651932
 30
0.0
 10
248.7272870755264
 20
-389.8568863903614
 30
0.0
 10
248.7272870755264
 20
-389.5807440155335
 30
0.0
 10
248.9511447005705
 20
-389.3568863904849
 30
0.0
 10
249.2272870754016
 20
-389.3568863904849
 30
0.0
 10
249.503429450232
 20
-389.3568863904849
 30
0.0
 10
249.7272870752761
 20
-389.5807440155335
 30
0.0
 10
249.7272870752761
 20
-389.8568863903614
 30
0.0
  0
SPLINE
  5
E2
330
DD
100
AcDbEntity
  8
Layer 1
 62
   178
420
    65795
370
     9
100
AcDbSpline
210
0.0
220
0.0
230
1.0
 70
    11
 71
     3
 72
    17
 73
    13
 74
     0
 42
0.0000000001
 43
0.0000000001
 12
1.0
 22
0.0
 32
0.0
 13
1.0
 23
0.0
 33
0.0
 40
0.0
 40
0.0
 40
0.0
 40
0.0
 40
1.0
 40
1.0
 40
1.0
 40
2.0
 40
2.0
 40
2.0
 40
3.0
 40
3.0
 40
3.0
 40
4.0
 40
4.0
 40
4.0
 40
4.0
 10
244.7108737998456
 20
-389.8568863902523
 30
0.0
 10
244.7108737998334
 20
-390.1330287650802
 30
0.0
 10
244.9347314248672
 20
-390.3568863901359
 30
0.0
 10
245.2108737996977
 20
-390.35688639015
 30
0.0
 10
245.4870161745287
 20
-390.3568863901571
 30
0.0
 10
245.7108737995831
 20
-390.1330287651226
 30
0.0
 10
245.7108737995953
 20
-389.8568863902947
 30
0.0
 10
245.7108737996075
 20
-389.580744015463
 30
0.0
 10
245.4870161745737
 20
-389.3568863904073
 30
0.0
 10
245.2108737997426
 20
-389.3568863903964
 30
0.0
 10
244.9347314249121
 20
-389.3568863903823
 30
0.0
 10
244.7108737998578
 20
-389.5807440154206
 30
0.0
 10
244.7108737998456
 20
-389.8568863902523
 30
0.0
  0
ENDBLK
  5
E0
330
DD
100
AcDbEntity
  8
0
100
AcDbBlockEnd
  0
BLOCK
  5
E5
330
E3
100
AcDbEntity
  8
0
100
AcDbBlockBegin
  2
block 25
 70
     0
 10
0.0
 20
0.0
 30
0.0
  3
block 25
  1

  0
SPLINE
  5
E7
330
E3
100
AcDbEntity
  8
Layer 1
 62
   178
420
    65795
370
     9
100
AcDbSpline
210
0.0
220
0.0
230
1.0
 70
    11
 71
     3
 72
    17
 73
    13
 74
     0
 42
0.0000000001
 43
0.0000000001
 12
1.0
 22
0.0
 32
0.0
 13
1.0
 23
0.0
 33
0.0
 40
0.0
 40
0.0
 40
0.0
 40
0.0
 40
1.0
 40
1.0
 40
1.0
 40
2.0
 40
2.0
 40
2.0
 40
3.0
 40
3.0
 40
3.0
 40
4.0
 40
4.0
 40
4.0
 40
4.0
 10
249.7272870752761
 20
-290.1237535515625
 30
0.0
 10
249.7272870752761
 20
-290.3998959263929
 30
0.0
 10
249.503429450232
 20
-290.6237535514371
 30
0.0
 10
249.2272870754016
 20
-290.6237535514371
 30
0.0
 10
248.9511447005705
 20
-290.6237535514371
 30
0.0
 10
248.7272870755264
 20
-290.3998959263929
 30
0.0
 10
248.7272870755264
 20
-290.1237535515625
 30
0.0
 10
248.7272870755264
 20
-289.847611176732
 30
0.0
 10
248.9511447005705
 20
-289.6237535516879
 30
0.0
 10
249.2272870754016
 20
-289.6237535516879
 30
0.0
 10
249.503429450232
 20
-289.6237535516879
 30
0.0
 10
249.7272870752761
 20
-289.847611176732
 30
0.0
 10
249.7272870752761
 20
-290.1237535515625
 30
0.0
  0
SPLINE
  5
E8
330
E3
100
AcDbEntity
  8
Layer 1
 62
   178
420
    65795
370
     9
100
AcDbSpline
210
0.0
220
0.0
230
1.0
 70
    11
 71
     3
 72
    17
 73
    13
 74
     0
 42
0.0000000001
 43
0.0000000001
 12
1.0
 22
0.0
 32
0.0
 13
1.0
 23
0.0
 33
0.0
 40
0.0
 40
0.0
 40
0.0
 40
0.0
 40
1.0
 40
1.0
 40
1.0
 40
2.0
 40
2.0
 40
2.0
 40
3.0
 40
3.0
 40
3.0
 40
4.0
 40
4.0
 40
4.0
 40
4.0
 10
244.7108737998456
 20
-290.1237535514495
 30
0.0
 10
244.7108737998334
 20
-290.3998959262813
 30
0.0
 10
244.9347314248672
 20
-290.6237535513357
 30
0.0
 10
245.2108737996977
 20
-290.6237535513472
 30
0.0
 10
245.4870161745287
 20
-290.62375355136
 30
0.0
 10
245.7108737995831
 20
-290.3998959263262
 30
0.0
 10
245.7108737995953
 20
-290.1237535514945
 30
0.0
 10
245.7108737996075
 20
-289.847611176664
 30
0.0
 10
245.4870161745737
 20
-289.6237535516096
 30
0.0
 10
245.2108737997426
 20
-289.623753551598
 30
0.0
 10
244.9347314249121
 20
-289.6237535515853
 30
0.0
 10
244.7108737998578
 20
-289.8476111766191
 30
0.0
 10
244.7108737998456
 20
-290.1237535514495
 30
0.0
  0
ENDBLK
  5
E6
330
E3
100
AcDbEntity
  8
0
100
AcDbBlockEnd
  0
BLOCK
  5
EB
330
E9
100
AcDbEntity
  8
0
100
AcDbBlockBegin
  2
block 26
 70
     0
 10
0.0
 20
0.0
 30
0.0
  3
block 26
  1

  0
POLYLINE
  5
ED
330
E9
100
AcDbEntity
  8
Layer 1
 62
     7
420
 16777215
370
     9
100
AcDb2dPolyline
 66
     1
 10
0.0
 20
0.0
 30
0.0
  0
VERTEX
  5
EE
330
ED
100
AcDbEntity
  8
Layer 1
 62
     7
420
 16777215
370
     9
100
AcDbVertex
100
AcDb2dVertex
 10
241.6310804389575
 20
-456.0145651930705
 30
0.0
  0
VERTEX
  5
EF
330
ED
100
AcDbEntity
  8
Layer 1
 62
     7
420
 16777215
370
     9
100
AcDbVertex
100
AcDb2dVertex
 10
247.2190804375599
 20
-414.9337329795511
 30
0.0
  0
SEQEND
  5
F0
330
ED
100
AcDbEntity
  8
Layer 1
 62
     7
420
 16777215
370
     9
  0
POLYLINE
  5
F1
330
E9
100
AcDbEntity
  8
Layer 1
 62
     7
420
 16777215
370
     9
100
AcDb2dPolyline
 66
     1
 10
0.0
 20
0.0
 30
0.0
  0
VERTEX
  5
F2
330
F1
100
AcDbEntity
  8
Layer 1
 62
     7
420
 16777215
370
     9
100
AcDbVertex
100
AcDb2dVertex
 10
247.2190804375612
 20
-414.9337329795511
 30
0.0
  0
VERTEX
  5
F3
330
F1
100
AcDbEntity
  8
Layer 1
 62
     7
420
 16777215
370
     9
100
AcDbVertex
100
AcDb2dVertex
 10
252.8070804361636
 20
-456.0145651930705
 30
0.0
  0
SEQEND
  5
F4
330
F1
100
AcDbEntity
  8
Layer 1
 62
     7
420
 16777215
370
     9
  0
ENDBLK
  5
EC
330
E9
100
AcDbEntity
  8
0
100
AcDbBlockEnd
  0
BLOCK
  5
F7
330
F5
100
AcDbEntity
  8
0
100
AcDbBlockBegin
  2
block 27
 70
     0
 10
0.0
 20
0.0
 30
0.0
  3
block 27
  1

  0
SPLINE
  5
F9
330
F5
100
AcDbEntity
  8
Layer 1
 62
   178
420
    65795
370
     9
100
AcDbSpline
210
0.0
220
0.0
230
1.0
 70
    11
 71
     3
 72
    23
 73
    19
 74
     0
 42
0.0000000001
 43
0.0000000001
 12
1.0
 22
0.0
 32
0.0
 13
1.0
 23
0.0
 33
0.0
 40
0.0
 40
0.0
 40
0.0
 40
0.0
 40
1.0
 40
1.0
 40
1.0
 40
2.0
 40
2.0
 40
2.0
 40
3.0
 40
3.0
 40
3.0
 40
4.0
 40
4.0
 40
4.0
 40
5.0
 40
5.0
 40
5.0
 40
6.0
 40
6.0
 40
6.0
 40
6.0
 10
362.0444624818559
 20
-264.9952143348295
 30
0.0
 10
294.0057214506886
 20
-327.7336759619388
 30
0.0
 10
309.567217757562
 20
-384.8818672725261
 30
0.0
 10
325.3970008753494
 20
-416.0048168225769
 30
0.0
 10
341.2267839931367
 20
-447.1277663726272
 30
0.0
 10
342.8365909860069
 20
-454.6033651934637
 30
0.0
 10
342.8365909860069
 20
-454.6033651934637
 30
0.0
 10
342.8365909860069
 20
-454.6033651934637
 30
0.0
 10
362.0444624818559
 20
-454.6033651934637
 30
0.0
 10
362.0444624818559
 20
-454.6033651934637
 30
0.0
 10
362.0444624818559
 20
-454.6033651934637
 30
0.0
 10
381.2523339777069
 20
-454.6033651934637
 30
0.0
 10
381.2523339777069
 20
-454.6033651934637
 30
0.0
 10
381.2523339777069
 20
-454.6033651934637
 30
0.0
 10
382.8620548431899
 20
-447.1277663726272
 30
0.0
 10
398.6919240883644
 20
-416.0048168225769
 30
0.0
 10
414.5216210787646
 20
-384.8818672725261
 30
0.0
 10
430.0831173856382
 20
-327.7336759619388
 30
0.0
 10
362.0444624818559
 20
-264.9952143348295
 30
0.0
  0
INSERT
  5
FB
330
F5
100
AcDbEntity
  8
Layer 1
100
AcDbBlockReference
  2
block 28
 10
0.0
 20
0.0
 30
0.0
  0
INSERT
  5
101
330
F5
100
AcDbEntity
  8
Layer 1
100
AcDbBlockReference
  2
block 29
 10
0.0
 20
0.0
 30
0.0
  0
INSERT
  5
107
330
F5
100
AcDbEntity
  8
Layer 1
100
AcDbBlockReference
  2
block 30
 10
0.0
 20
0.0
 30
0.0
  0
ENDBLK
  5
F8
330
F5
100
AcDbEntity
  8
0
100
AcDbBlockEnd
  0
BLOCK
  5
FC
330
FA
100
AcDbEntity
  8
0
100
AcDbBlockBegin
  2
block 28
 70
     0
 10
0.0
 20
0.0
 30
0.0
  3
block 28
  1

  0
SPLINE
  5
FE
330
FA
100
AcDbEntity
  8
Layer 1
 62
   178
420
    65795
370
     9
100
AcDbSpline
210
0.0
220
0.0
230
1.0
 70
    11
 71
     3
 72
    17
 73
    13
 74
     0
 42
0.0000000001
 43
0.0000000001
 12
1.0
 22
0.0
 32
0.0
 13
1.0
 23
0.0
 33
0.0
 40
0.0
 40
0.0
 40
0.0
 40
0.0
 40
1.0
 40
1.0
 40
1.0
 40
2.0
 40
2.0
 40
2.0
 40
3.0
 40
3.0
 40
3.0
 40
4.0
 40
4.0
 40
4.0
 40
4.0
 10
374.5418214985368
 20
-449.0945493854724
 30
0.0
 10
374.5861674465331
 20
-449.7558035368139
 30
0.0
 10
375.1581651414758
 20
-450.2559128843608
 30
0.0
 10
375.8194192928178
 20
-450.2115669363646
 30
0.0
 10
376.4806841859534
 20
-450.1672202679848
 30
0.0
 10
376.9807820713233
 20
-449.5952125516276
 30
0.0
 10
376.936436123327
 20
-448.9339584002894
 30
0.0
 10
376.8920901753302
 20
-448.2727042489479
 30
0.0
 10
376.3200924803875
 20
-447.7725949014042
 30
0.0
 10
375.6588275872518
 20
-447.8169415697801
 30
0.0
 10
374.9975734359105
 20
-447.8612875177732
 30
0.0
 10
374.4974755505406
 20
-448.4332952341304
 30
0.0
 10
374.5418214985368
 20
-449.0945493854724
 30
0.0
  0
SPLINE
  5
FF
330
FA
100
AcDbEntity
  8
Layer 1
 62
   178
420
    65795
370
     9
100
AcDbSpline
210
0.0
220
0.0
230
1.0
 70
    11
 71
     3
 72
    17
 73
    13
 74
     0
 42
0.0000000001
 43
0.0000000001
 12
1.0
 22
0.0
 32
0.0
 13
1.0
 23
0.0
 33
0.0
 40
0.0
 40
0.0
 40
0.0
 40
0.0
 40
1.0
 40
1.0
 40
1.0
 40
2.0
 40
2.0
 40
2.0
 40
3.0
 40
3.0
 40
3.0
 40
4.0
 40
4.0
 40
4.0
 40
4.0
 10
349.5470400421119
 20
-449.0945493863086
 30
0.0
 10
349.5026940940836
 20
-449.7558035376429
 30
0.0
 10
348.9306963991159
 20
-450.2559128851649
 30
0.0
 10
348.2694422477816
 20
-450.2115669371404
 30
0.0
 10
347.6081773546478
 20
-450.167220268733
 30
0.0
 10
347.108079469303
 20
-449.5952125523508
 30
0.0
 10
347.1524254173275
 20
-448.9339584010126
 30
0.0
 10
347.1967713653526
 20
-448.2727042496743
 30
0.0
 10
347.7687690603196
 20
-447.7725949021556
 30
0.0
 10
348.4300339534533
 20
-447.816941570563
 30
0.0
 10
349.0912881047915
 20
-447.8612875185875
 30
0.0
 10
349.5913859901364
 20
-448.4332952349665
 30
0.0
 10
349.5470400421119
 20
-449.0945493863086
 30
0.0
  0
ENDBLK
  5
FD
330
FA
100
AcDbEntity
  8
0
100
AcDbBlockEnd
  0
BLOCK
  5
102
330
100
100
AcDbEntity
  8
0
100
AcDbBlockBegin
  2
block 29
 70
     0
 10
0.0
 20
0.0
 30
0.0
  3
block 29
  1

  0
SPLINE
  5
104
330
100
100
AcDbEntity
  8
Layer 1
 62
   178
420
    65795
370
     9
100
AcDbSpline
210
0.0
220
0.0
230
1.0
 70
    11
 71
     3
 72
    17
 73
    13
 74
     0
 42
0.0000000001
 43
0.0000000001
 12
1.0
 22
0.0
 32
0.0
 13
1.0
 23
0.0
 33
0.0
 40
0.0
 40
0.0
 40
0.0
 40
0.0
 40
1.0
 40
1.0
 40
1.0
 40
2.0
 40
2.0
 40
2.0
 40
3.0
 40
3.0
 40
3.0
 40
4.0
 40
4.0
 40
4.0
 40
4.0
 10
364.5526374080435
 20
-389.8568863903614
 30
0.0
 10
364.5526374080435
 20
-390.1330287651932
 30
0.0
 10
364.3287797829988
 20
-390.3568863902347
 30
0.0
 10
364.052637408167
 20
-390.3568863902347
 30
0.0
 10
363.7764950333353
 20
-390.3568863902347
 30
0.0
 10
363.5526374082937
 20
-390.1330287651932
 30
0.0
 10
363.5526374082937
 20
-389.8568863903614
 30
0.0
 10
363.5526374082937
 20
-389.5807440155335
 30
0.0
 10
363.7764950333353
 20
-389.3568863904849
 30
0.0
 10
364.052637408167
 20
-389.3568863904849
 30
0.0
 10
364.3287797829988
 20
-389.3568863904849
 30
0.0
 10
364.5526374080435
 20
-389.5807440155335
 30
0.0
 10
364.5526374080435
 20
-389.8568863903614
 30
0.0
  0
SPLINE
  5
105
330
100
100
AcDbEntity
  8
Layer 1
 62
   178
420
    65795
370
     9
100
AcDbSpline
210
0.0
220
0.0
230
1.0
 70
    11
 71
     3
 72
    17
 73
    13
 74
     0
 42
0.0000000001
 43
0.0000000001
 12
1.0
 22
0.0
 32
0.0
 13
1.0
 23
0.0
 33
0.0
 40
0.0
 40
0.0
 40
0.0
 40
0.0
 40
1.0
 40
1.0
 40
1.0
 40
2.0
 40
2.0
 40
2.0
 40
3.0
 40
3.0
 40
3.0
 40
4.0
 40
4.0
 40
4.0
 40
4.0
 10
359.5362241326129
 20
-389.8568863902523
 30
0.0
 10
359.5362241325988
 20
-390.1330287650802
 30
0.0
 10
359.7600817576326
 20
-390.3568863901359
 30
0.0
 10
360.0362241324644
 20
-390.35688639015
 30
0.0
 10
360.3123665072961
 20
-390.3568863901571
 30
0.0
 10
360.536224132348
 20
-390.1330287651226
 30
0.0
 10
360.5362241323621
 20
-389.8568863902947
 30
0.0
 10
360.536224132373
 20
-389.580744015463
 30
0.0
 10
360.3123665073385
 20
-389.3568863904073
 30
0.0
 10
360.0362241325067
 20
-389.3568863903964
 30
0.0
 10
359.7600817576788
 20
-389.3568863903823
 30
0.0
 10
359.5362241326232
 20
-389.5807440154206
 30
0.0
 10
359.5362241326129
 20
-389.8568863902523
 30
0.0
  0
ENDBLK
  5
103
330
100
100
AcDbEntity
  8
0
100
AcDbBlockEnd
  0
BLOCK
  5
108
330
106
100
AcDbEntity
  8
0
100
AcDbBlockBegin
  2
block 30
 70
     0
 10
0.0
 20
0.0
 30
0.0
  3
block 30
  1

  0
SPLINE
  5
10A
330
106
100
AcDbEntity
  8
Layer 1
 62
   178
420
    65795
370
     9
100
AcDbSpline
210
0.0
220
0.0
230
1.0
 70
    11
 71
     3
 72
    17
 73
    13
 74
     0
 42
0.0000000001
 43
0.0000000001
 12
1.0
 22
0.0
 32
0.0
 13
1.0
 23
0.0
 33
0.0
 40
0.0
 40
0.0
 40
0.0
 40
0.0
 40
1.0
 40
1.0
 40
1.0
 40
2.0
 40
2.0
 40
2.0
 40
3.0
 40
3.0
 40
3.0
 40
4.0
 40
4.0
 40
4.0
 40
4.0
 10
364.5526374080435
 20
-290.1237535515625
 30
0.0
 10
364.5526374080435
 20
-290.3998959263929
 30
0.0
 10
364.3287797829988
 20
-290.6237535514371
 30
0.0
 10
364.052637408167
 20
-290.6237535514371
 30
0.0
 10
363.7764950333353
 20
-290.6237535514371
 30
0.0
 10
363.5526374082937
 20
-290.3998959263929
 30
0.0
 10
363.5526374082937
 20
-290.1237535515625
 30
0.0
 10
363.5526374082937
 20
-289.847611176732
 30
0.0
 10
363.7764950333353
 20
-289.6237535516879
 30
0.0
 10
364.052637408167
 20
-289.6237535516879
 30
0.0
 10
364.3287797829988
 20
-289.6237535516879
 30
0.0
 10
364.5526374080435
 20
-289.847611176732
 30
0.0
 10
364.5526374080435
 20
-290.1237535515625
 30
0.0
  0
SPLINE
  5
10B
330
106
100
AcDbEntity
  8
Layer 1
 62
   178
420
    65795
370
     9
100
AcDbSpline
210
0.0
220
0.0
230
1.0
 70
    11
 71
     3
 72
    17
 73
    13
 74
     0
 42
0.0000000001
 43
0.0000000001
 12
1.0
 22
0.0
 32
0.0
 13
1.0
 23
0.0
 33
0.0
 40
0.0
 40
0.0
 40
0.0
 40
0.0
 40
1.0
 40
1.0
 40
1.0
 40
2.0
 40
2.0
 40
2.0
 40
3.0
 40
3.0
 40
3.0
 40
4.0
 40
4.0
 40
4.0
 40
4.0
 10
359.5362241326129
 20
-290.1237535514495
 30
0.0
 10
359.5362241325988
 20
-290.3998959262813
 30
0.0
 10
359.7600817576326
 20
-290.6237535513357
 30
0.0
 10
360.0362241324644
 20
-290.6237535513472
 30
0.0
 10
360.3123665072961
 20
-290.62375355136
 30
0.0
 10
360.536224132348
 20
-290.3998959263262
 30
0.0
 10
360.5362241323621
 20
-290.1237535514945
 30
0.0
 10
360.536224132373
 20
-289.847611176664
 30
0.0
 10
360.3123665073385
 20
-289.6237535516096
 30
0.0
 10
360.0362241325067
 20
-289.623753551598
 30
0.0
 10
359.7600817576788
 20
-289.6237535515853
 30
0.0
 10
359.5362241326232
 20
-289.8476111766191
 30
0.0
 10
359.5362241326129
 20
-290.1237535514495
 30
0.0
  0
ENDBLK
  5
109
330
106
100
AcDbEntity
  8
0
100
AcDbBlockEnd
  0
BLOCK
  5
10E
330
10C
100
AcDbEntity
  8
0
100
AcDbBlockBegin
  2
block 31
 70
     0
 10
0.0
 20
0.0
 30
0.0
  3
block 31
  1

  0
POLYLINE
  5
110
330
10C
100
AcDbEntity
  8
Layer 1
 62
     7
420
 16777215
370
     9
100
AcDb2dPolyline
 66
     1
 10
0.0
 20
0.0
 30
0.0
  0
VERTEX
  5
111
330
110
100
AcDbEntity
  8
Layer 1
 62
     7
420
 16777215
370
     9
100
AcDbVertex
100
AcDb2dVertex
 10
356.4564307717229
 20
-456.0145651930705
 30
0.0
  0
VERTEX
  5
112
330
110
100
AcDbEntity
  8
Layer 1
 62
     7
420
 16777215
370
     9
100
AcDbVertex
100
AcDb2dVertex
 10
362.044430770326
 20
-414.9337329795511
 30
0.0
  0
SEQEND
  5
113
330
110
100
AcDbEntity
  8
Layer 1
 62
     7
420
 16777215
370
     9
  0
POLYLINE
  5
114
330
10C
100
AcDbEntity
  8
Layer 1
 62
     7
420
 16777215
370
     9
100
AcDb2dPolyline
 66
     1
 10
0.0
 20
0.0
 30
0.0
  0
VERTEX
  5
115
330
114
100
AcDbEntity
  8
Layer 1
 62
     7
420
 16777215
370
     9
100
AcDbVertex
100
AcDb2dVertex
 10
362.044430770326
 20
-414.9337329795511
 30
0.0
  0
VERTEX
  5
116
330
114
100
AcDbEntity
  8
Layer 1
 62
     7
420
 16777215
370
     9
100
AcDbVertex
100
AcDb2dVertex
 10
367.6324307689291
 20
-456.0145651930705
 30
0.0
  0
SEQEND
  5
117
330
114
100
AcDbEntity
  8
Layer 1
 62
     7
420
 16777215
370
     9
  0
ENDBLK
  5
10F
330
10C
100
AcDbEntity
  8
0
100
AcDbBlockEnd
  0
BLOCK
  5
11A
330
118
100
AcDbEntity
  8
0
100
AcDbBlockBegin
  2
block 32
 70
     0
 10
0.0
 20
0.0
 30
0.0
  3
block 32
  1

  0
SPLINE
  5
11C
330
118
100
AcDbEntity
  8
Layer 1
 62
   178
420
    65795
370
     9
100
AcDbSpline
210
0.0
220
0.0
230
1.0
 70
    11
 71
     3
 72
    23
 73
    19
 74
     0
 42
0.0000000001
 43
0.0000000001
 12
1.0
 22
0.0
 32
0.0
 13
1.0
 23
0.0
 33
0.0
 40
0.0
 40
0.0
 40
0.0
 40
0.0
 40
1.0
 40
1.0
 40
1.0
 40
2.0
 40
2.0
 40
2.0
 40
3.0
 40
3.0
 40
3.0
 40
4.0
 40
4.0
 40
4.0
 40
5.0
 40
5.0
 40
5.0
 40
6.0
 40
6.0
 40
6.0
 40
6.0
 10
476.9960240129696
 20
-264.9952143348295
 30
0.0
 10
408.9572829818022
 20
-327.7336759619388
 30
0.0
 10
424.5187792886757
 20
-384.8818672725261
 30
0.0
 10
440.3485624064611
 20
-416.0048168225769
 30
0.0
 10
456.1783455242504
 20
-447.1277663726272
 30
0.0
 10
457.7881525171186
 20
-454.6033651934637
 30
0.0
 10
457.7881525171186
 20
-454.6033651934637
 30
0.0
 10
457.7881525171186
 20
-454.6033651934637
 30
0.0
 10
476.9960240129696
 20
-454.6033651934637
 30
0.0
 10
476.9960240129696
 20
-454.6033651934637
 30
0.0
 10
476.9960240129696
 20
-454.6033651934637
 30
0.0
 10
496.2038955088167
 20
-454.6033651934637
 30
0.0
 10
496.2038955088167
 20
-454.6033651934637
 30
0.0
 10
496.2038955088167
 20
-454.6033651934637
 30
0.0
 10
497.8136163742997
 20
-447.1277663726272
 30
0.0
 10
513.6434856194742
 20
-416.0048168225769
 30
0.0
 10
529.4731826098745
 20
-384.8818672725261
 30
0.0
 10
545.0346789167479
 20
-327.7336759619388
 30
0.0
 10
476.9960240129696
 20
-264.9952143348295
 30
0.0
  0
INSERT
  5
11E
330
118
100
AcDbEntity
  8
Layer 1
100
AcDbBlockReference
  2
block 33
 10
0.0
 20
0.0
 30
0.0
  0
INSERT
  5
124
330
118
100
AcDbEntity
  8
Layer 1
100
AcDbBlockReference
  2
block 34
 10
0.0
 20
0.0
 30
0.0
  0
INSERT
  5
12A
330
118
100
AcDbEntity
  8
Layer 1
100
AcDbBlockReference
  2
block 35
 10
0.0
 20
0.0
 30
0.0
  0
ENDBLK
  5
11B
330
118
100
AcDbEntity
  8
0
100
AcDbBlockEnd
  0
BLOCK
  5
11F
330
11D
100
AcDbEntity
  8
0
100
AcDbBlockBegin
  2
block 33
 70
     0
 10
0.0
 20
0.0
 30
0.0
  3
block 33
  1

  0
SPLINE
  5
121
330
11D
100
AcDbEntity
  8
Layer 1
 62
   178
420
    65795
370
     9
100
AcDbSpline
210
0.0
220
0.0
230
1.0
 70
    11
 71
     3
 72
    17
 73
    13
 74
     0
 42
0.0000000001
 43
0.0000000001
 12
1.0
 22
0.0
 32
0.0
 13
1.0
 23
0.0
 33
0.0
 40
0.0
 40
0.0
 40
0.0
 40
0.0
 40
1.0
 40
1.0
 40
1.0
 40
2.0
 40
2.0
 40
2.0
 40
3.0
 40
3.0
 40
3.0
 40
4.0
 40
4.0
 40
4.0
 40
4.0
 10
489.4933830296504
 20
-449.0945493854724
 30
0.0
 10
489.5377289776467
 20
-449.7558035368139
 30
0.0
 10
490.10972667259
 20
-450.2559128843608
 30
0.0
 10
490.7709808239314
 20
-450.2115669363646
 30
0.0
 10
491.4322457170632
 20
-450.1672202679848
 30
0.0
 10
491.932343602437
 20
-449.5952125516276
 30
0.0
 10
491.8879976544407
 20
-448.9339584002894
 30
0.0
 10
491.8436517064445
 20
-448.2727042489479
 30
0.0
 10
491.2716540115011
 20
-447.7725949014042
 30
0.0
 10
490.6103891183655
 20
-447.8169415697801
 30
0.0
 10
489.9491349670241
 20
-447.8612875177732
 30
0.0
 10
489.4490370816542
 20
-448.4332952341304
 30
0.0
 10
489.4933830296504
 20
-449.0945493854724
 30
0.0
  0
SPLINE
  5
122
330
11D
100
AcDbEntity
  8
Layer 1
 62
   178
420
    65795
370
     9
100
AcDbSpline
210
0.0
220
0.0
230
1.0
 70
    11
 71
     3
 72
    17
 73
    13
 74
     0
 42
0.0000000001
 43
0.0000000001
 12
1.0
 22
0.0
 32
0.0
 13
1.0
 23
0.0
 33
0.0
 40
0.0
 40
0.0
 40
0.0
 40
0.0
 40
1.0
 40
1.0
 40
1.0
 40
2.0
 40
2.0
 40
2.0
 40
3.0
 40
3.0
 40
3.0
 40
4.0
 40
4.0
 40
4.0
 40
4.0
 10
464.4986015732223
 20
-449.0945493863086
 30
0.0
 10
464.4542556251978
 20
-449.7558035376429
 30
0.0
 10
463.8822579302301
 20
-450.2559128851649
 30
0.0
 10
463.2210037788919
 20
-450.2115669371404
 30
0.0
 10
462.5597388857602
 20
-450.167220268733
 30
0.0
 10
462.0596410004147
 20
-449.5952125523508
 30
0.0
 10
462.1039869484392
 20
-448.9339584010126
 30
0.0
 10
462.1483328964675
 20
-448.2727042496743
 30
0.0
 10
462.7203305914314
 20
-447.7725949021556
 30
0.0
 10
463.381595484567
 20
-447.816941570563
 30
0.0
 10
464.0428496359052
 20
-447.8612875185875
 30
0.0
 10
464.5429475212507
 20
-448.4332952349665
 30
0.0
 10
464.4986015732223
 20
-449.0945493863086
 30
0.0
  0
ENDBLK
  5
120
330
11D
100
AcDbEntity
  8
0
100
AcDbBlockEnd
  0
BLOCK
  5
125
330
123
100
AcDbEntity
  8
0
100
AcDbBlockBegin
  2
block 34
 70
     0
 10
0.0
 20
0.0
 30
0.0
  3
block 34
  1

  0
SPLINE
  5
127
330
123
100
AcDbEntity
  8
Layer 1
 62
   178
420
    65795
370
     9
100
AcDbSpline
210
0.0
220
0.0
230
1.0
 70
    11
 71
     3
 72
    17
 73
    13
 74
     0
 42
0.0000000001
 43
0.0000000001
 12
1.0
 22
0.0
 32
0.0
 13
1.0
 23
0.0
 33
0.0
 40
0.0
 40
0.0
 40
0.0
 40
0.0
 40
1.0
 40
1.0
 40
1.0
 40
2.0
 40
2.0
 40
2.0
 40
3.0
 40
3.0
 40
3.0
 40
4.0
 40
4.0
 40
4.0
 40
4.0
 10
479.5041989391533
 20
-389.8568863903614
 30
0.0
 10
479.5041989391533
 20
-390.1330287651932
 30
0.0
 10
479.2803413141124
 20
-390.3568863902347
 30
0.0
 10
479.0041989392807
 20
-390.3568863902347
 30
0.0
 10
478.7280565644489
 20
-390.3568863902347
 30
0.0
 10
478.5041989394041
 20
-390.1330287651932
 30
0.0
 10
478.5041989394041
 20
-389.8568863903614
 30
0.0
 10
478.5041989394041
 20
-389.5807440155335
 30
0.0
 10
478.7280565644489
 20
-389.3568863904849
 30
0.0
 10
479.0041989392807
 20
-389.3568863904849
 30
0.0
 10
479.2803413141124
 20
-389.3568863904849
 30
0.0
 10
479.5041989391533
 20
-389.5807440155335
 30
0.0
 10
479.5041989391533
 20
-389.8568863903614
 30
0.0
  0
SPLINE
  5
128
330
123
100
AcDbEntity
  8
Layer 1
 62
   178
420
    65795
370
     9
100
AcDbSpline
210
0.0
220
0.0
230
1.0
 70
    11
 71
     3
 72
    17
 73
    13
 74
     0
 42
0.0000000001
 43
0.0000000001
 12
1.0
 22
0.0
 32
0.0
 13
1.0
 23
0.0
 33
0.0
 40
0.0
 40
0.0
 40
0.0
 40
0.0
 40
1.0
 40
1.0
 40
1.0
 40
2.0
 40
2.0
 40
2.0
 40
3.0
 40
3.0
 40
3.0
 40
4.0
 40
4.0
 40
4.0
 40
4.0
 10
474.4877856637227
 20
-389.8568863902523
 30
0.0
 10
474.4877856637124
 20
-390.1330287650802
 30
0.0
 10
474.7116432887463
 20
-390.3568863901359
 30
0.0
 10
474.9877856635748
 20
-390.35688639015
 30
0.0
 10
475.2639280384066
 20
-390.3568863901571
 30
0.0
 10
475.4877856634616
 20
-390.1330287651226
 30
0.0
 10
475.4877856634725
 20
-389.8568863902947
 30
0.0
 10
475.4877856634866
 20
-389.580744015463
 30
0.0
 10
475.2639280384521
 20
-389.3568863904073
 30
0.0
 10
474.9877856636204
 20
-389.3568863903964
 30
0.0
 10
474.7116432887925
 20
-389.3568863903823
 30
0.0
 10
474.4877856637368
 20
-389.5807440154206
 30
0.0
 10
474.4877856637227
 20
-389.8568863902523
 30
0.0
  0
ENDBLK
  5
126
330
123
100
AcDbEntity
  8
0
100
AcDbBlockEnd
  0
BLOCK
  5
12B
330
129
100
AcDbEntity
  8
0
100
AcDbBlockBegin
  2
block 35
 70
     0
 10
0.0
 20
0.0
 30
0.0
  3
block 35
  1

  0
SPLINE
  5
12D
330
129
100
AcDbEntity
  8
Layer 1
 62
   178
420
    65795
370
     9
100
AcDbSpline
210
0.0
220
0.0
230
1.0
 70
    11
 71
     3
 72
    17
 73
    13
 74
     0
 42
0.0000000001
 43
0.0000000001
 12
1.0
 22
0.0
 32
0.0
 13
1.0
 23
0.0
 33
0.0
 40
0.0
 40
0.0
 40
0.0
 40
0.0
 40
1.0
 40
1.0
 40
1.0
 40
2.0
 40
2.0
 40
2.0
 40
3.0
 40
3.0
 40
3.0
 40
4.0
 40
4.0
 40
4.0
 40
4.0
 10
479.5041989391533
 20
-290.1237535515625
 30
0.0
 10
479.5041989391533
 20
-290.3998959263929
 30
0.0
 10
479.2803413141124
 20
-290.6237535514371
 30
0.0
 10
479.0041989392807
 20
-290.6237535514371
 30
0.0
 10
478.7280565644489
 20
-290.6237535514371
 30
0.0
 10
478.5041989394041
 20
-290.3998959263929
 30
0.0
 10
478.5041989394041
 20
-290.1237535515625
 30
0.0
 10
478.5041989394041
 20
-289.847611176732
 30
0.0
 10
478.7280565644489
 20
-289.6237535516879
 30
0.0
 10
479.0041989392807
 20
-289.6237535516879
 30
0.0
 10
479.2803413141124
 20
-289.6237535516879
 30
0.0
 10
479.5041989391533
 20
-289.847611176732
 30
0.0
 10
479.5041989391533
 20
-290.1237535515625
 30
0.0
  0
SPLINE
  5
12E
330
129
100
AcDbEntity
  8
Layer 1
 62
   178
420
    65795
370
     9
100
AcDbSpline
210
0.0
220
0.0
230
1.0
 70
    11
 71
     3
 72
    17
 73
    13
 74
     0
 42
0.0000000001
 43
0.0000000001
 12
1.0
 22
0.0
 32
0.0
 13
1.0
 23
0.0
 33
0.0
 40
0.0
 40
0.0
 40
0.0
 40
0.0
 40
1.0
 40
1.0
 40
1.0
 40
2.0
 40
2.0
 40
2.0
 40
3.0
 40
3.0
 40
3.0
 40
4.0
 40
4.0
 40
4.0
 40
4.0
 10
474.4877856637227
 20
-290.1237535514495
 30
0.0
 10
474.4877856637124
 20
-290.3998959262813
 30
0.0
 10
474.7116432887463
 20
-290.6237535513357
 30
0.0
 10
474.9877856635748
 20
-290.6237535513472
 30
0.0
 10
475.2639280384066
 20
-290.62375355136
 30
0.0
 10
475.4877856634616
 20
-290.3998959263262
 30
0.0
 10
475.4877856634725
 20
-290.1237535514945
 30
0.0
 10
475.4877856634866
 20
-289.847611176664
 30
0.0
 10
475.2639280384521
 20
-289.6237535516096
 30
0.0
 10
474.9877856636204
 20
-289.623753551598
 30
0.0
 10
474.7116432887925
 20
-289.6237535515853
 30
0.0
 10
474.4877856637368
 20
-289.8476111766191
 30
0.0
 10
474.4877856637227
 20
-290.1237535514495
 30
0.0
  0
ENDBLK
  5
12C
330
129
100
AcDbEntity
  8
0
100
AcDbBlockEnd
  0
BLOCK
  5
131
330
12F
100
AcDbEntity
  8
0
100
AcDbBlockBegin
  2
block 36
 70
     0
 10
0.0
 20
0.0
 30
0.0
  3
block 36
  1

  0
POLYLINE
  5
133
330
12F
100
AcDbEntity
  8
Layer 1
 62
     7
420
 16777215
370
     9
100
AcDb2dPolyline
 66
     1
 10
0.0
 20
0.0
 30
0.0
  0
VERTEX
  5
134
330
133
100
AcDbEntity
  8
Layer 1
 62
     7
420
 16777215
370
     9
100
AcDbVertex
100
AcDb2dVertex
 10
471.4079923028372
 20
-456.0145651930705
 30
0.0
  0
VERTEX
  5
135
330
133
100
AcDbEntity
  8
Layer 1
 62
     7
420
 16777215
370
     9
100
AcDbVertex
100
AcDb2dVertex
 10
476.9959923014396
 20
-414.9337329795511
 30
0.0
  0
SEQEND
  5
136
330
133
100
AcDbEntity
  8
Layer 1
 62
     7
420
 16777215
370
     9
  0
POLYLINE
  5
137
330
12F
100
AcDbEntity
  8
Layer 1
 62
     7
420
 16777215
370
     9
100
AcDb2dPolyline
 66
     1
 10
0.0
 20
0.0
 30
0.0
  0
VERTEX
  5
138
330
137
100
AcDbEntity
  8
Layer 1
 62
     7
420
 16777215
370
     9
100
AcDbVertex
100
AcDb2dVertex
 10
476.9959923014396
 20
-414.9337329795511
 30
0.0
  0
VERTEX
  5
139
330
137
100
AcDbEntity
  8
Layer 1
 62
     7
420
 16777215
370
     9
100
AcDbVertex
100
AcDb2dVertex
 10
482.5839923000427
 20
-456.0145651930705
 30
0.0
  0
SEQEND
  5
13A
330
137
100
AcDbEntity
  8
Layer 1
 62
     7
420
 16777215
370
     9
  0
ENDBLK
  5
132
330
12F
100
AcDbEntity
  8
0
100
AcDbBlockEnd
  0
BLOCK
  5
13D
330
13B
100
AcDbEntity
  8
0
100
AcDbBlockBegin
  2
block 37
 70
     0
 10
0.0
 20
0.0
 30
0.0
  3
block 37
  1

  0
SPLINE
  5
13F
330
13B
100
AcDbEntity
  8
Layer 1
 62
   178
420
    65795
370
     9
100
AcDbSpline
210
0.0
220
0.0
230
1.0
 70
    11
 71
     3
 72
    23
 73
    19
 74
     0
 42
0.0000000001
 43
0.0000000001
 12
1.0
 22
0.0
 32
0.0
 13
1.0
 23
0.0
 33
0.0
 40
0.0
 40
0.0
 40
0.0
 40
0.0
 40
1.0
 40
1.0
 40
1.0
 40
2.0
 40
2.0
 40
2.0
 40
3.0
 40
3.0
 40
3.0
 40
4.0
 40
4.0
 40
4.0
 40
5.0
 40
5.0
 40
5.0
 40
6.0
 40
6.0
 40
6.0
 40
6.0
 10
591.9475855440833
 20
-264.9952143348295
 30
0.0
 10
523.9088445129158
 20
-327.7336759619388
 30
0.0
 10
539.4703408197894
 20
-384.8818672725261
 30
0.0
 10
555.3001239375748
 20
-416.0048168225769
 30
0.0
 10
571.129907055364
 20
-447.1277663726272
 30
0.0
 10
572.7397140482323
 20
-454.6033651934637
 30
0.0
 10
572.7397140482323
 20
-454.6033651934637
 30
0.0
 10
572.7397140482323
 20
-454.6033651934637
 30
0.0
 10
591.9475855440833
 20
-454.6033651934637
 30
0.0
 10
591.9475855440833
 20
-454.6033651934637
 30
0.0
 10
591.9475855440833
 20
-454.6033651934637
 30
0.0
 10
611.1554570399304
 20
-454.6033651934637
 30
0.0
 10
611.1554570399304
 20
-454.6033651934637
 30
0.0
 10
611.1554570399304
 20
-454.6033651934637
 30
0.0
 10
612.7651779054133
 20
-447.1277663726272
 30
0.0
 10
628.5950471505878
 20
-416.0048168225769
 30
0.0
 10
644.4247441409881
 20
-384.8818672725261
 30
0.0
 10
659.9862404478615
 20
-327.7336759619388
 30
0.0
 10
591.9475855440833
 20
-264.9952143348295
 30
0.0
  0
INSERT
  5
141
330
13B
100
AcDbEntity
  8
Layer 1
100
AcDbBlockReference
  2
block 38
 10
0.0
 20
0.0
 30
0.0
  0
INSERT
  5
147
330
13B
100
AcDbEntity
  8
Layer 1
100
AcDbBlockReference
  2
block 39
 10
0.0
 20
0.0
 30
0.0
  0
INSERT
  5
14D
330
13B
100
AcDbEntity
  8
Layer 1
100
AcDbBlockReference
  2
block 40
 10
0.0
 20
0.0
 30
0.0
  0
ENDBLK
  5
13E
330
13B
100
AcDbEntity
  8
0
100
AcDbBlockEnd
  0
BLOCK
  5
142
330
140
100
AcDbEntity
  8
0
100
AcDbBlockBegin
  2
block 38
 70
     0
 10
0.0
 20
0.0
 30
0.0
  3
block 38
  1

  0
SPLINE
  5
144
330
140
100
AcDbEntity
  8
Layer 1
 62
   178
420
    65795
370
     9
100
AcDbSpline
210
0.0
220
0.0
230
1.0
 70
    11
 71
     3
 72
    17
 73
    13
 74
     0
 42
0.0000000001
 43
0.0000000001
 12
1.0
 22
0.0
 32
0.0
 13
1.0
 23
0.0
 33
0.0
 40
0.0
 40
0.0
 40
0.0
 40
0.0
 40
1.0
 40
1.0
 40
1.0
 40
2.0
 40
2.0
 40
2.0
 40
3.0
 40
3.0
 40
3.0
 40
4.0
 40
4.0
 40
4.0
 40
4.0
 10
604.444944560764
 20
-449.0945493854724
 30
0.0
 10
604.4892905087571
 20
-449.7558035368139
 30
0.0
 10
605.0612882037036
 20
-450.2559128843608
 30
0.0
 10
605.7225423550451
 20
-450.2115669363646
 30
0.0
 10
606.3838072481775
 20
-450.1672202679848
 30
0.0
 10
606.8839051335474
 20
-449.5952125516276
 30
0.0
 10
606.8395591855543
 20
-448.9339584002894
 30
0.0
 10
606.7952132375581
 20
-448.2727042489479
 30
0.0
 10
606.2232155426116
 20
-447.7725949014042
 30
0.0
 10
605.5619506494759
 20
-447.8169415697801
 30
0.0
 10
604.9006964981377
 20
-447.8612875177732
 30
0.0
 10
604.4005986127678
 20
-448.4332952341304
 30
0.0
 10
604.444944560764
 20
-449.0945493854724
 30
0.0
  0
SPLINE
  5
145
330
140
100
AcDbEntity
  8
Layer 1
 62
   178
420
    65795
370
     9
100
AcDbSpline
210
0.0
220
0.0
230
1.0
 70
    11
 71
     3
 72
    17
 73
    13
 74
     0
 42
0.0000000001
 43
0.0000000001
 12
1.0
 22
0.0
 32
0.0
 13
1.0
 23
0.0
 33
0.0
 40
0.0
 40
0.0
 40
0.0
 40
0.0
 40
1.0
 40
1.0
 40
1.0
 40
2.0
 40
2.0
 40
2.0
 40
3.0
 40
3.0
 40
3.0
 40
4.0
 40
4.0
 40
4.0
 40
4.0
 10
579.450163104336
 20
-449.0945493863086
 30
0.0
 10
579.4058171563115
 20
-449.7558035376429
 30
0.0
 10
578.8338194613438
 20
-450.2559128851649
 30
0.0
 10
578.1725653100056
 20
-450.2115669371404
 30
0.0
 10
577.5113004168738
 20
-450.167220268733
 30
0.0
 10
577.0112025315283
 20
-449.5952125523508
 30
0.0
 10
577.0555484795528
 20
-448.9339584010126
 30
0.0
 10
577.0998944275773
 20
-448.2727042496743
 30
0.0
 10
577.6718921225456
 20
-447.7725949021556
 30
0.0
 10
578.3331570156806
 20
-447.816941570563
 30
0.0
 10
578.9944111670188
 20
-447.8612875185875
 30
0.0
 10
579.4945090523643
 20
-448.4332952349665
 30
0.0
 10
579.450163104336
 20
-449.0945493863086
 30
0.0
  0
ENDBLK
  5
143
330
140
100
AcDbEntity
  8
0
100
AcDbBlockEnd
  0
BLOCK
  5
148
330
146
100
AcDbEntity
  8
0
100
AcDbBlockBegin
  2
block 39
 70
     0
 10
0.0
 20
0.0
 30
0.0
  3
block 39
  1

  0
SPLINE
  5
14A
330
146
100
AcDbEntity
  8
Layer 1
 62
   178
420
    65795
370
     9
100
AcDbSpline
210
0.0
220
0.0
230
1.0
 70
    11
 71
     3
 72
    17
 73
    13
 74
     0
 42
0.0000000001
 43
0.0000000001
 12
1.0
 22
0.0
 32
0.0
 13
1.0
 23
0.0
 33
0.0
 40
0.0
 40
0.0
 40
0.0
 40
0.0
 40
1.0
 40
1.0
 40
1.0
 40
2.0
 40
2.0
 40
2.0
 40
3.0
 40
3.0
 40
3.0
 40
4.0
 40
4.0
 40
4.0
 40
4.0
 10
594.4557604702669
 20
-389.8568863903614
 30
0.0
 10
594.4557604702669
 20
-390.1330287651932
 30
0.0
 10
594.2319028452222
 20
-390.3568863902347
 30
0.0
 10
593.9557604703942
 20
-390.3568863902347
 30
0.0
 10
593.6796180955625
 20
-390.3568863902347
 30
0.0
 10
593.4557604705178
 20
-390.1330287651932
 30
0.0
 10
593.4557604705178
 20
-389.8568863903614
 30
0.0
 10
593.4557604705178
 20
-389.5807440155335
 30
0.0
 10
593.6796180955625
 20
-389.3568863904849
 30
0.0
 10
593.9557604703942
 20
-389.3568863904849
 30
0.0
 10
594.2319028452222
 20
-389.3568863904849
 30
0.0
 10
594.4557604702669
 20
-389.5807440155335
 30
0.0
 10
594.4557604702669
 20
-389.8568863903614
 30
0.0
  0
SPLINE
  5
14B
330
146
100
AcDbEntity
  8
Layer 1
 62
   178
420
    65795
370
     9
100
AcDbSpline
210
0.0
220
0.0
230
1.0
 70
    11
 71
     3
 72
    17
 73
    13
 74
     0
 42
0.0000000001
 43
0.0000000001
 12
1.0
 22
0.0
 32
0.0
 13
1.0
 23
0.0
 33
0.0
 40
0.0
 40
0.0
 40
0.0
 40
0.0
 40
1.0
 40
1.0
 40
1.0
 40
2.0
 40
2.0
 40
2.0
 40
3.0
 40
3.0
 40
3.0
 40
4.0
 40
4.0
 40
4.0
 40
4.0
 10
589.4393471948364
 20
-389.8568863902523
 30
0.0
 10
589.439347194826
 20
-390.1330287650802
 30
0.0
 10
589.66320481986
 20
-390.3568863901359
 30
0.0
 10
589.9393471946885
 20
-390.35688639015
 30
0.0
 10
590.2154895695202
 20
-390.3568863901571
 30
0.0
 10
590.4393471945752
 20
-390.1330287651226
 30
0.0
 10
590.4393471945862
 20
-389.8568863902947
 30
0.0
 10
590.4393471946003
 20
-389.580744015463
 30
0.0
 10
590.2154895695658
 20
-389.3568863904073
 30
0.0
 10
589.9393471947341
 20
-389.3568863903964
 30
0.0
 10
589.6632048199023
 20
-389.3568863903823
 30
0.0
 10
589.4393471948505
 20
-389.5807440154206
 30
0.0
 10
589.4393471948364
 20
-389.8568863902523
 30
0.0
  0
ENDBLK
  5
149
330
146
100
AcDbEntity
  8
0
100
AcDbBlockEnd
  0
BLOCK
  5
14E
330
14C
100
AcDbEntity
  8
0
100
AcDbBlockBegin
  2
block 40
 70
     0
 10
0.0
 20
0.0
 30
0.0
  3
block 40
  1

  0
SPLINE
  5
150
330
14C
100
AcDbEntity
  8
Layer 1
 62
   178
420
    65795
370
     9
100
AcDbSpline
210
0.0
220
0.0
230
1.0
 70
    11
 71
     3
 72
    17
 73
    13
 74
     0
 42
0.0000000001
 43
0.0000000001
 12
1.0
 22
0.0
 32
0.0
 13
1.0
 23
0.0
 33
0.0
 40
0.0
 40
0.0
 40
0.0
 40
0.0
 40
1.0
 40
1.0
 40
1.0
 40
2.0
 40
2.0
 40
2.0
 40
3.0
 40
3.0
 40
3.0
 40
4.0
 40
4.0
 40
4.0
 40
4.0
 10
594.4557604702669
 20
-290.1237535515625
 30
0.0
 10
594.4557604702669
 20
-290.3998959263929
 30
0.0
 10
594.2319028452222
 20
-290.6237535514371
 30
0.0
 10
593.9557604703942
 20
-290.6237535514371
 30
0.0
 10
593.6796180955625
 20
-290.6237535514371
 30
0.0
 10
593.4557604705178
 20
-290.3998959263929
 30
0.0
 10
593.4557604705178
 20
-290.1237535515625
 30
0.0
 10
593.4557604705178
 20
-289.847611176732
 30
0.0
 10
593.6796180955625
 20
-289.6237535516879
 30
0.0
 10
593.9557604703942
 20
-289.6237535516879
 30
0.0
 10
594.2319028452222
 20
-289.6237535516879
 30
0.0
 10
594.4557604702669
 20
-289.847611176732
 30
0.0
 10
594.4557604702669
 20
-290.1237535515625
 30
0.0
  0
SPLINE
  5
151
330
14C
100
AcDbEntity
  8
Layer 1
 62
   178
420
    65795
370
     9
100
AcDbSpline
210
0.0
220
0.0
230
1.0
 70
    11
 71
     3
 72
    17
 73
    13
 74
     0
 42
0.0000000001
 43
0.0000000001
 12
1.0
 22
0.0
 32
0.0
 13
1.0
 23
0.0
 33
0.0
 40
0.0
 40
0.0
 40
0.0
 40
0.0
 40
1.0
 40
1.0
 40
1.0
 40
2.0
 40
2.0
 40
2.0
 40
3.0
 40
3.0
 40
3.0
 40
4.0
 40
4.0
 40
4.0
 40
4.0
 10
589.4393471948364
 20
-290.1237535514495
 30
0.0
 10
589.439347194826
 20
-290.3998959262813
 30
0.0
 10
589.66320481986
 20
-290.6237535513357
 30
0.0
 10
589.9393471946885
 20
-290.6237535513472
 30
0.0
 10
590.2154895695202
 20
-290.62375355136
 30
0.0
 10
590.4393471945752
 20
-290.3998959263262
 30
0.0
 10
590.4393471945862
 20
-290.1237535514945
 30
0.0
 10
590.4393471946003
 20
-289.847611176664
 30
0.0
 10
590.2154895695658
 20
-289.6237535516096
 30
0.0
 10
589.9393471947341
 20
-289.623753551598
 30
0.0
 10
589.6632048199023
 20
-289.6237535515853
 30
0.0
 10
589.4393471948505
 20
-289.8476111766191
 30
0.0
 10
589.4393471948364
 20
-290.1237535514495
 30
0.0
  0
ENDBLK
  5
14F
330
14C
100
AcDbEntity
  8
0
100
AcDbBlockEnd
  0
BLOCK
  5
154
330
152
100
AcDbEntity
  8
0
100
AcDbBlockBegin
  2
block 41
 70
     0
 10
0.0
 20
0.0
 30
0.0
  3
block 41
  1

  0
POLYLINE
  5
156
330
152
100
AcDbEntity
  8
Layer 1
 62
     7
420
 16777215
370
     9
100
AcDb2dPolyline
 66
     1
 10
0.0
 20
0.0
 30
0.0
  0
VERTEX
  5
157
330
156
100
AcDbEntity
  8
Layer 1
 62
     7
420
 16777215
370
     9
100
AcDbVertex
100
AcDb2dVertex
 10
586.3595538339508
 20
-456.0145651930705
 30
0.0
  0
VERTEX
  5
158
330
156
100
AcDbEntity
  8
Layer 1
 62
     7
420
 16777215
370
     9
100
AcDbVertex
100
AcDb2dVertex
 10
591.94755383255
 20
-414.9337329795511
 30
0.0
  0
SEQEND
  5
159
330
156
100
AcDbEntity
  8
Layer 1
 62
     7
420
 16777215
370
     9
  0
POLYLINE
  5
15A
330
152
100
AcDbEntity
  8
Layer 1
 62
     7
420
 16777215
370
     9
100
AcDb2dPolyline
 66
     1
 10
0.0
 20
0.0
 30
0.0
  0
VERTEX
  5
15B
330
15A
100
AcDbEntity
  8
Layer 1
 62
     7
420
 16777215
370
     9
100
AcDbVertex
100
AcDb2dVertex
 10
591.9475538325539
 20
-414.9337329795511
 30
0.0
  0
VERTEX
  5
15C
330
15A
100
AcDbEntity
  8
Layer 1
 62
     7
420
 16777215
370
     9
100
AcDbVertex
100
AcDb2dVertex
 10
597.5355538311563
 20
-456.0145651930705
 30
0.0
  0
SEQEND
  5
15D
330
15A
100
AcDbEntity
  8
Layer 1
 62
     7
420
 16777215
370
     9
  0
ENDBLK
  5
155
330
152
100
AcDbEntity
  8
0
100
AcDbBlockEnd
  0
ENDSEC
  0
SECTION
  2
ENTITIES
  0
SPLINE
  5
41
330
1F
100
AcDbEntity
  8
Layer 1
 62
     7
420
 16777215
370
     9
100
AcDbSpline
210
0.0
220
0.0
230
1.0
 70
    11
 71
     3
 72
    26
 73
    22
 74
     0
 42
0.0000000001
 43
0.0000000001
 12
1.0
 22
0.0
 32
0.0
 13
1.0
 23
0.0
 33
0.0
 40
0.0
 40
0.0
 40
0.0
 40
0.0
 40
1.0
 40
1.0
 40
1.0
 40
2.0
 40
2.0
 40
2.0
 40
3.0
 40
3.0
 40
3.0
 40
4.0
 40
4.0
 40
4.0
 40
5.0
 40
5.0
 40
5.0
 40
6.0
 40
6.0
 40
6.0
 40
7.0
 40
7.0
 40
7.0
 40
7.0
 10
213.5218181002797
 20
-560.1423341164508
 30
0.0
 10
223.4981256064662
 20
-543.2729934359836
 30
0.0
 10
234.9053535224512
 20
-515.6887167773039
 30
0.0
 10
230.7410943546554
 20
-481.9679499129041
 30
0.0
 10
224.8689291000471
 20
-434.4154691847749
 30
0.0
 10
192.514142595549
 20
-418.9163291061844
 30
0.0
 10
192.514142595549
 20
-418.9163291061844
 30
0.0
 10
192.514142595549
 20
-418.9163291061844
 30
0.0
 10
192.514142595549
 20
-418.9163291061844
 30
0.0
 10
192.514142595549
 20
-418.9163291061844
 30
0.0
 10
192.514142595549
 20
-418.9163291061844
 30
0.0
 10
192.5139703407747
 20
-418.9163291061844
 30
0.0
 10
192.5139703407747
 20
-418.9163291061844
 30
0.0
 10
192.5139703407747
 20
-418.9163291061844
 30
0.0
 10
160.1593560910509
 20
-434.4154691847749
 30
0.0
 10
154.2870185816683
 20
-481.9679499129041
 30
0.0
 10
150.1229316686468
 20
-515.6887167773039
 30
0.0
 10
161.5301595846318
 20
-543.2729934359836
 30
0.0
 10
171.506294836044
 20
-560.1423341164508
 30
0.0
 10
171.506294836044
 20
-560.1423341164508
 30
0.0
 10
213.5218181002797
 20
-560.1423341164508
 30
0.0
 10
213.5218181002797
 20
-560.1423341164508
 30
0.0
  0
HATCH
  5
42
330
1F
100
AcDbEntity
  8
Layer 1
 62
     7
420
 16711423
100
AcDbHatch
 10
0.0
 20
0.0
 30
0.0
210
0.0
220
0.0
230
1.0
  2
SOLID
 70
     1
 71
     0
 91
        1
 92
        1
 93
        1
 72
     4
 94
        3
 73
     0
 74
     1
 95
       26
 96
       22
 40
0.0
 40
0.0
 40
0.0
 40
0.0
 40
1.0
 40
1.0
 40
1.0
 40
2.0
 40
2.0
 40
2.0
 40
3.0
 40
3.0
 40
3.0
 40
4.0
 40
4.0
 40
4.0
 40
5.0
 40
5.0
 40
5.0
 40
6.0
 40
6.0
 40
6.0
 40
7.0
 40
7.0
 40
7.0
 40
7.0
 10
213.5218181002797
 20
-560.1423341164508
 10
223.4981256064662
 20
-543.2729934359836
 10
234.9053535224512
 20
-515.6887167773039
 10
230.7410943546554
 20
-481.9679499129041
 10
224.8689291000471
 20
-434.4154691847749
 10
192.514142595549
 20
-418.9163291061844
 10
192.514142595549
 20
-418.9163291061844
 10
192.514142595549
 20
-418.9163291061844
 10
192.514142595549
 20
-418.9163291061844
 10
192.514142595549
 20
-418.9163291061844
 10
192.514142595549
 20
-418.9163291061844
 10
192.5139703407747
 20
-418.9163291061844
 10
192.5139703407747
 20
-418.9163291061844
 10
192.5139703407747
 20
-418.9163291061844
 10
160.1593560910509
 20
-434.4154691847749
 10
154.2870185816683
 20
-481.9679499129041
 10
150.1229316686468
 20
-515.6887167773039
 10
161.5301595846318
 20
-543.2729934359836
 10
171.506294836044
 20
-560.1423341164508
 10
171.506294836044
 20
-560.1423341164508
 10
213.5218181002797
 20
-560.1423341164508
 10
213.5218181002797
 20
-560.1423341164508
 97
        0
 97
        0
 75
     2
 76
     1
 98
        0
  0
POLYLINE
  5
43
330
1F
100
AcDbEntity
  8
Layer 1
 62
     7
420
 16777215
370
     9
100
AcDb2dPolyline
 66
     1
 10
0.0
 20
0.0
 30
0.0
  0
VERTEX
  5
44
330
43
100
AcDbEntity
  8
Layer 1
 62
     7
420
 16777215
370
     9
100
AcDbVertex
100
AcDb2dVertex
 10
192.5140885426734
 20
-512.4273746884422
 30
0.0
  0
VERTEX
  5
45
330
43
100
AcDbEntity
  8
Layer 1
 62
     7
420
 16777215
370
     9
100
AcDbVertex
100
AcDb2dVertex
 10
192.5140885426734
 20
-560.1423341164508
 30
0.0
  0
SEQEND
  5
46
330
43
100
AcDbEntity
  8
Layer 1
 62
     7
420
 16777215
370
     9
  0
INSERT
  5
48
330
1F
100
AcDbEntity
  8
Layer 1
100
AcDbBlockReference
  2
block 2
 10
0.0
 20
0.0
 30
0.0
  0
SPLINE
  5
57
330
1F
100
AcDbEntity
  8
Layer 1
 62
     7
420
 16777215
370
     9
100
AcDbSpline
210
0.0
220
0.0
230
1.0
 70
    11
 71
     3
 72
    26
 73
    22
 74
     0
 42
0.0000000001
 43
0.0000000001
 12
1.0
 22
0.0
 32
0.0
 13
1.0
 23
0.0
 33
0.0
 40
0.0
 40
0.0
 40
0.0
 40
0.0
 40
1.0
 40
1.0
 40
1.0
 40
2.0
 40
2.0
 40
2.0
 40
3.0
 40
3.0
 40
3.0
 40
4.0
 40
4.0
 40
4.0
 40
5.0
 40
5.0
 40
5.0
 40
6.0
 40
6.0
 40
6.0
 40
7.0
 40
7.0
 40
7.0
 40
7.0
 10
325.6394851615509
 20
-560.1423341164508
 30
0.0
 10
335.6157926677373
 20
-543.2729934359836
 30
0.0
 10
347.0230205837223
 20
-515.6887167773039
 30
0.0
 10
342.8587614159266
 20
-481.9679499129041
 30
0.0
 10
336.9865961613182
 20
-434.4154691847749
 30
0.0
 10
304.6318096568201
 20
-418.9163291061844
 30
0.0
 10
304.6318096568201
 20
-418.9163291061844
 30
0.0
 10
304.6318096568201
 20
-418.9163291061844
 30
0.0
 10
304.6318096568201
 20
-418.9163291061844
 30
0.0
 10
304.6318096568201
 20
-418.9163291061844
 30
0.0
 10
304.6318096568201
 20
-418.9163291061844
 30
0.0
 10
304.6316374020459
 20
-418.9163291061844
 30
0.0
 10
304.6316374020459
 20
-418.9163291061844
 30
0.0
 10
304.6316374020459
 20
-418.9163291061844
 30
0.0
 10
272.277023152322
 20
-434.4154691847749
 30
0.0
 10
266.4046856429394
 20
-481.9679499129041
 30
0.0
 10
262.240598729918
 20
-515.6887167773039
 30
0.0
 10
273.6478266459029
 20
-543.2729934359836
 30
0.0
 10
283.6239618973152
 20
-560.1423341164508
 30
0.0
 10
283.6239618973152
 20
-560.1423341164508
 30
0.0
 10
325.6394851615509
 20
-560.1423341164508
 30
0.0
 10
325.6394851615509
 20
-560.1423341164508
 30
0.0
  0
HATCH
  5
58
330
1F
100
AcDbEntity
  8
Layer 1
 62
     7
420
 16711423
100
AcDbHatch
 10
0.0
 20
0.0
 30
0.0
210
0.0
220
0.0
230
1.0
  2
SOLID
 70
     1
 71
     0
 91
        1
 92
        1
 93
        1
 72
     4
 94
        3
 73
     0
 74
     1
 95
       26
 96
       22
 40
0.0
 40
0.0
 40
0.0
 40
0.0
 40
1.0
 40
1.0
 40
1.0
 40
2.0
 40
2.0
 40
2.0
 40
3.0
 40
3.0
 40
3.0
 40
4.0
 40
4.0
 40
4.0
 40
5.0
 40
5.0
 40
5.0
 40
6.0
 40
6.0
 40
6.0
 40
7.0
 40
7.0
 40
7.0
 40
7.0
 10
325.6394851615509
 20
-560.1423341164508
 10
335.6157926677373
 20
-543.2729934359836
 10
347.0230205837223
 20
-515.6887167773039
 10
342.8587614159266
 20
-481.9679499129041
 10
336.9865961613182
 20
-434.4154691847749
 10
304.6318096568201
 20
-418.9163291061844
 10
304.6318096568201
 20
-418.9163291061844
 10
304.6318096568201
 20
-418.9163291061844
 10
304.6318096568201
 20
-418.9163291061844
 10
304.6318096568201
 20
-418.9163291061844
 10
304.6318096568201
 20
-418.9163291061844
 10
304.6316374020459
 20
-418.9163291061844
 10
304.6316374020459
 20
-418.9163291061844
 10
304.6316374020459
 20
-418.9163291061844
 10
272.277023152322
 20
-434.4154691847749
 10
266.4046856429394
 20
-481.9679499129041
 10
262.240598729918
 20
-515.6887167773039
 10
273.6478266459029
 20
-543.2729934359836
 10
283.6239618973152
 20
-560.1423341164508
 10
283.6239618973152
 20
-560.1423341164508
 10
325.6394851615509
 20
-560.1423341164508
 10
325.6394851615509
 20
-560.1423341164508
 97
        0
 97
        0
 75
     2
 76
     1
 98
        0
  0
POLYLINE
  5
59
330
1F
100
AcDbEntity
  8
Layer 1
 62
     7
420
 16777215
370
     9
100
AcDb2dPolyline
 66
     1
 10
0.0
 20
0.0
 30
0.0
  0
VERTEX
  5
5A
330
59
100
AcDbEntity
  8
Layer 1
 62
     7
420
 16777215
370
     9
100
AcDbVertex
100
AcDb2dVertex
 10
304.6317556039446
 20
-512.4273746884422
 30
0.0
  0
VERTEX
  5
5B
330
59
100
AcDbEntity
  8
Layer 1
 62
     7
420
 16777215
370
     9
100
AcDbVertex
100
AcDb2dVertex
 10
304.6317556039446
 20
-560.1423341164508
 30
0.0
  0
SEQEND
  5
5C
330
59
100
AcDbEntity
  8
Layer 1
 62
     7
420
 16777215
370
     9
  0
INSERT
  5
5E
330
1F
100
AcDbEntity
  8
Layer 1
100
AcDbBlockReference
  2
block 5
 10
0.0
 20
0.0
 30
0.0
  0
SPLINE
  5
6D
330
1F
100
AcDbEntity
  8
Layer 1
 62
     7
420
 16777215
370
     9
100
AcDbSpline
210
0.0
220
0.0
230
1.0
 70
    11
 71
     3
 72
    26
 73
    22
 74
     0
 42
0.0000000001
 43
0.0000000001
 12
1.0
 22
0.0
 32
0.0
 13
1.0
 23
0.0
 33
0.0
 40
0.0
 40
0.0
 40
0.0
 40
0.0
 40
1.0
 40
1.0
 40
1.0
 40
2.0
 40
2.0
 40
2.0
 40
3.0
 40
3.0
 40
3.0
 40
4.0
 40
4.0
 40
4.0
 40
5.0
 40
5.0
 40
5.0
 40
6.0
 40
6.0
 40
6.0
 40
7.0
 40
7.0
 40
7.0
 40
7.0
 10
440.5279410934911
 20
-560.1423341164508
 30
0.0
 10
450.5042485996775
 20
-543.2729934359836
 30
0.0
 10
461.9114765156625
 20
-515.6887167773039
 30
0.0
 10
457.7472173478668
 20
-481.9679499129041
 30
0.0
 10
451.8750520932584
 20
-434.4154691847749
 30
0.0
 10
419.5202655887603
 20
-418.9163291061844
 30
0.0
 10
419.5202655887603
 20
-418.9163291061844
 30
0.0
 10
419.5202655887603
 20
-418.9163291061844
 30
0.0
 10
419.5202655887603
 20
-418.9163291061844
 30
0.0
 10
419.5202655887603
 20
-418.9163291061844
 30
0.0
 10
419.5202655887603
 20
-418.9163291061844
 30
0.0
 10
419.520093333986
 20
-418.9163291061844
 30
0.0
 10
419.520093333986
 20
-418.9163291061844
 30
0.0
 10
419.520093333986
 20
-418.9163291061844
 30
0.0
 10
387.1654790842622
 20
-434.4154691847749
 30
0.0
 10
381.2931415748796
 20
-481.9679499129041
 30
0.0
 10
377.1290546618581
 20
-515.6887167773039
 30
0.0
 10
388.5362825778431
 20
-543.2729934359836
 30
0.0
 10
398.5124178292554
 20
-560.1423341164508
 30
0.0
 10
398.5124178292554
 20
-560.1423341164508
 30
0.0
 10
440.5279410934911
 20
-560.1423341164508
 30
0.0
 10
440.5279410934911
 20
-560.1423341164508
 30
0.0
  0
HATCH
  5
6E
330
1F
100
AcDbEntity
  8
Layer 1
 62
     7
420
 16711423
100
AcDbHatch
 10
0.0
 20
0.0
 30
0.0
210
0.0
220
0.0
230
1.0
  2
SOLID
 70
     1
 71
     0
 91
        1
 92
        1
 93
        1
 72
     4
 94
        3
 73
     0
 74
     1
 95
       26
 96
       22
 40
0.0
 40
0.0
 40
0.0
 40
0.0
 40
1.0
 40
1.0
 40
1.0
 40
2.0
 40
2.0
 40
2.0
 40
3.0
 40
3.0
 40
3.0
 40
4.0
 40
4.0
 40
4.0
 40
5.0
 40
5.0
 40
5.0
 40
6.0
 40
6.0
 40
6.0
 40
7.0
 40
7.0
 40
7.0
 40
7.0
 10
440.5279410934911
 20
-560.1423341164508
 10
450.5042485996775
 20
-543.2729934359836
 10
461.9114765156625
 20
-515.6887167773039
 10
457.7472173478668
 20
-481.9679499129041
 10
451.8750520932584
 20
-434.4154691847749
 10
419.5202655887603
 20
-418.9163291061844
 10
419.5202655887603
 20
-418.9163291061844
 10
419.5202655887603
 20
-418.9163291061844
 10
419.5202655887603
 20
-418.9163291061844
 10
419.5202655887603
 20
-418.9163291061844
 10
419.5202655887603
 20
-418.9163291061844
 10
419.520093333986
 20
-418.9163291061844
 10
419.520093333986
 20
-418.9163291061844
 10
419.520093333986
 20
-418.9163291061844
 10
387.1654790842622
 20
-434.4154691847749
 10
381.2931415748796
 20
-481.9679499129041
 10
377.1290546618581
 20
-515.6887167773039
 10
388.5362825778431
 20
-543.2729934359836
 10
398.5124178292554
 20
-560.1423341164508
 10
398.5124178292554
 20
-560.1423341164508
 10
440.5279410934911
 20
-560.1423341164508
 10
440.5279410934911
 20
-560.1423341164508
 97
        0
 97
        0
 75
     2
 76
     1
 98
        0
  0
POLYLINE
  5
6F
330
1F
100
AcDbEntity
  8
Layer 1
 62
     7
420
 16777215
370
     9
100
AcDb2dPolyline
 66
     1
 10
0.0
 20
0.0
 30
0.0
  0
VERTEX
  5
70
330
6F
100
AcDbEntity
  8
Layer 1
 62
     7
420
 16777215
370
     9
100
AcDbVertex
100
AcDb2dVertex
 10
419.5202115358847
 20
-512.4273746884422
 30
0.0
  0
VERTEX
  5
71
330
6F
100
AcDbEntity
  8
Layer 1
 62
     7
420
 16777215
370
     9
100
AcDbVertex
100
AcDb2dVertex
 10
419.5202115358847
 20
-560.1423341164508
 30
0.0
  0
SEQEND
  5
72
330
6F
100
AcDbEntity
  8
Layer 1
 62
     7
420
 16777215
370
     9
  0
INSERT
  5
74
330
1F
100
AcDbEntity
  8
Layer 1
100
AcDbBlockReference
  2
block 8
 10
0.0
 20
0.0
 30
0.0
  0
SPLINE
  5
83
330
1F
100
AcDbEntity
  8
Layer 1
 62
     7
420
 16777215
370
     9
100
AcDbSpline
210
0.0
220
0.0
230
1.0
 70
    11
 71
     3
 72
    26
 73
    22
 74
     0
 42
0.0000000001
 43
0.0000000001
 12
1.0
 22
0.0
 32
0.0
 13
1.0
 23
0.0
 33
0.0
 40
0.0
 40
0.0
 40
0.0
 40
0.0
 40
1.0
 40
1.0
 40
1.0
 40
2.0
 40
2.0
 40
2.0
 40
3.0
 40
3.0
 40
3.0
 40
4.0
 40
4.0
 40
4.0
 40
5.0
 40
5.0
 40
5.0
 40
6.0
 40
6.0
 40
6.0
 40
7.0
 40
7.0
 40
7.0
 40
7.0
 10
560.3794716263602
 20
-560.1423341164508
 30
0.0
 10
570.3557791325468
 20
-543.2729934359836
 30
0.0
 10
581.7630070485317
 20
-515.6887167773039
 30
0.0
 10
577.598747880736
 20
-481.9679499129041
 30
0.0
 10
571.7265826261277
 20
-434.4154691847749
 30
0.0
 10
539.3717961216296
 20
-418.9163291061844
 30
0.0
 10
539.3717961216296
 20
-418.9163291061844
 30
0.0
 10
539.3717961216296
 20
-418.9163291061844
 30
0.0
 10
539.3717961216296
 20
-418.9163291061844
 30
0.0
 10
539.3717961216296
 20
-418.9163291061844
 30
0.0
 10
539.3717961216296
 20
-418.9163291061844
 30
0.0
 10
539.3716238668553
 20
-418.9163291061844
 30
0.0
 10
539.3716238668553
 20
-418.9163291061844
 30
0.0
 10
539.3716238668553
 20
-418.9163291061844
 30
0.0
 10
507.0170096171314
 20
-434.4154691847749
 30
0.0
 10
501.1446721077488
 20
-481.9679499129041
 30
0.0
 10
496.9805851947273
 20
-515.6887167773039
 30
0.0
 10
508.3878131107123
 20
-543.2729934359836
 30
0.0
 10
518.3639483621246
 20
-560.1423341164508
 30
0.0
 10
518.3639483621246
 20
-560.1423341164508
 30
0.0
 10
560.3794716263602
 20
-560.1423341164508
 30
0.0
 10
560.3794716263602
 20
-560.1423341164508
 30
0.0
  0
HATCH
  5
84
330
1F
100
AcDbEntity
  8
Layer 1
 62
     7
420
 16711423
100
AcDbHatch
 10
0.0
 20
0.0
 30
0.0
210
0.0
220
0.0
230
1.0
  2
SOLID
 70
     1
 71
     0
 91
        1
 92
        1
 93
        1
 72
     4
 94
        3
 73
     0
 74
     1
 95
       26
 96
       22
 40
0.0
 40
0.0
 40
0.0
 40
0.0
 40
1.0
 40
1.0
 40
1.0
 40
2.0
 40
2.0
 40
2.0
 40
3.0
 40
3.0
 40
3.0
 40
4.0
 40
4.0
 40
4.0
 40
5.0
 40
5.0
 40
5.0
 40
6.0
 40
6.0
 40
6.0
 40
7.0
 40
7.0
 40
7.0
 40
7.0
 10
560.3794716263602
 20
-560.1423341164508
 10
570.3557791325468
 20
-543.2729934359836
 10
581.7630070485317
 20
-515.6887167773039
 10
577.598747880736
 20
-481.9679499129041
 10
571.7265826261277
 20
-434.4154691847749
 10
539.3717961216296
 20
-418.9163291061844
 10
539.3717961216296
 20
-418.9163291061844
 10
539.3717961216296
 20
-418.9163291061844
 10
539.3717961216296
 20
-418.9163291061844
 10
539.3717961216296
 20
-418.9163291061844
 10
539.3717961216296
 20
-418.9163291061844
 10
539.3716238668553
 20
-418.9163291061844
 10
539.3716238668553
 20
-418.9163291061844
 10
539.3716238668553
 20
-418.9163291061844
 10
507.0170096171314
 20
-434.4154691847749
 10
501.1446721077488
 20
-481.9679499129041
 10
496.9805851947273
 20
-515.6887167773039
 10
508.3878131107123
 20
-543.2729934359836
 10
518.3639483621246
 20
-560.1423341164508
 10
518.3639483621246
 20
-560.1423341164508
 10
560.3794716263602
 20
-560.1423341164508
 10
560.3794716263602
 20
-560.1423341164508
 97
        0
 97
        0
 75
     2
 76
     1
 98
        0
  0
POLYLINE
  5
85
330
1F
100
AcDbEntity
  8
Layer 1
 62
     7
420
 16777215
370
     9
100
AcDb2dPolyline
 66
     1
 10
0.0
 20
0.0
 30
0.0
  0
VERTEX
  5
86
330
85
100
AcDbEntity
  8
Layer 1
 62
     7
420
 16777215
370
     9
100
AcDbVertex
100
AcDb2dVertex
 10
539.371742068754
 20
-512.4273746884422
 30
0.0
  0
VERTEX
  5
87
330
85
100
AcDbEntity
  8
Layer 1
 62
     7
420
 16777215
370
     9
100
AcDbVertex
100
AcDb2dVertex
 10
539.371742068754
 20
-560.1423341164508
 30
0.0
  0
SEQEND
  5
88
330
85
100
AcDbEntity
  8
Layer 1
 62
     7
420
 16777215
370
     9
  0
INSERT
  5
8A
330
1F
100
AcDbEntity
  8
Layer 1
100
AcDbBlockReference
  2
block 11
 10
0.0
 20
0.0
 30
0.0
  0
SPLINE
  5
99
330
1F
100
AcDbEntity
  8
Layer 1
 62
     7
420
 16777215
370
     9
100
AcDbSpline
210
0.0
220
0.0
230
1.0
 70
    11
 71
     3
 72
    26
 73
    22
 74
     0
 42
0.0000000001
 43
0.0000000001
 12
1.0
 22
0.0
 32
0.0
 13
1.0
 23
0.0
 33
0.0
 40
0.0
 40
0.0
 40
0.0
 40
0.0
 40
1.0
 40
1.0
 40
1.0
 40
2.0
 40
2.0
 40
2.0
 40
3.0
 40
3.0
 40
3.0
 40
4.0
 40
4.0
 40
4.0
 40
5.0
 40
5.0
 40
5.0
 40
6.0
 40
6.0
 40
6.0
 40
7.0
 40
7.0
 40
7.0
 40
7.0
 10
670.3679585565417
 20
-560.1423341164508
 30
0.0
 10
680.3442660627281
 20
-543.2729934359836
 30
0.0
 10
691.7514939787131
 20
-515.6887167773039
 30
0.0
 10
687.5872348109174
 20
-481.9679499129041
 30
0.0
 10
681.715069556309
 20
-434.4154691847749
 30
0.0
 10
649.3602830518109
 20
-418.9163291061844
 30
0.0
 10
649.3602830518109
 20
-418.9163291061844
 30
0.0
 10
649.3602830518109
 20
-418.9163291061844
 30
0.0
 10
649.3602830518109
 20
-418.9163291061844
 30
0.0
 10
649.3602830518109
 20
-418.9163291061844
 30
0.0
 10
649.3602830518109
 20
-418.9163291061844
 30
0.0
 10
649.3601107970367
 20
-418.9163291061844
 30
0.0
 10
649.3601107970367
 20
-418.9163291061844
 30
0.0
 10
649.3601107970367
 20
-418.9163291061844
 30
0.0
 10
617.0054965473129
 20
-434.4154691847749
 30
0.0
 10
611.1331590379302
 20
-481.9679499129041
 30
0.0
 10
606.9690721249087
 20
-515.6887167773039
 30
0.0
 10
618.3763000408937
 20
-543.2729934359836
 30
0.0
 10
628.3524352923059
 20
-560.1423341164508
 30
0.0
 10
628.3524352923059
 20
-560.1423341164508
 30
0.0
 10
670.3679585565417
 20
-560.1423341164508
 30
0.0
 10
670.3679585565417
 20
-560.1423341164508
 30
0.0
  0
HATCH
  5
9A
330
1F
100
AcDbEntity
  8
Layer 1
 62
     7
420
 16711423
100
AcDbHatch
 10
0.0
 20
0.0
 30
0.0
210
0.0
220
0.0
230
1.0
  2
SOLID
 70
     1
 71
     0
 91
        1
 92
        1
 93
        1
 72
     4
 94
        3
 73
     0
 74
     1
 95
       26
 96
       22
 40
0.0
 40
0.0
 40
0.0
 40
0.0
 40
1.0
 40
1.0
 40
1.0
 40
2.0
 40
2.0
 40
2.0
 40
3.0
 40
3.0
 40
3.0
 40
4.0
 40
4.0
 40
4.0
 40
5.0
 40
5.0
 40
5.0
 40
6.0
 40
6.0
 40
6.0
 40
7.0
 40
7.0
 40
7.0
 40
7.0
 10
670.3679585565417
 20
-560.1423341164508
 10
680.3442660627281
 20
-543.2729934359836
 10
691.7514939787131
 20
-515.6887167773039
 10
687.5872348109174
 20
-481.9679499129041
 10
681.715069556309
 20
-434.4154691847749
 10
649.3602830518109
 20
-418.9163291061844
 10
649.3602830518109
 20
-418.9163291061844
 10
649.3602830518109
 20
-418.9163291061844
 10
649.3602830518109
 20
-418.9163291061844
 10
649.3602830518109
 20
-418.9163291061844
 10
649.3602830518109
 20
-418.9163291061844
 10
649.3601107970367
 20
-418.9163291061844
 10
649.3601107970367
 20
-418.9163291061844
 10
649.3601107970367
 20
-418.9163291061844
 10
617.0054965473129
 20
-434.4154691847749
 10
611.1331590379302
 20
-481.9679499129041
 10
606.9690721249087
 20
-515.6887167773039
 10
618.3763000408937
 20
-543.2729934359836
 10
628.3524352923059
 20
-560.1423341164508
 10
628.3524352923059
 20
-560.1423341164508
 10
670.3679585565417
 20
-560.1423341164508
 10
670.3679585565417
 20
-560.1423341164508
 97
        0
 97
        0
 75
     2
 76
     1
 98
        0
  0
POLYLINE
  5
9B
330
1F
100
AcDbEntity
  8
Layer 1
 62
     7
420
 16777215
370
     9
100
AcDb2dPolyline
 66
     1
 10
0.0
 20
0.0
 30
0.0
  0
VERTEX
  5
9C
330
9B
100
AcDbEntity
  8
Layer 1
 62
     7
420
 16777215
370
     9
100
AcDbVertex
100
AcDb2dVertex
 10
649.3602289989353
 20
-512.4273746884422
 30
0.0
  0
VERTEX
  5
9D
330
9B
100
AcDbEntity
  8
Layer 1
 62
     7
420
 16777215
370
     9
100
AcDbVertex
100
AcDb2dVertex
 10
649.3602289989353
 20
-560.1423341164508
 30
0.0
  0
SEQEND
  5
9E
330
9B
100
AcDbEntity
  8
Layer 1
 62
     7
420
 16777215
370
     9
  0
INSERT
  5
A0
330
1F
100
AcDbEntity
  8
Layer 1
100
AcDbBlockReference
  2
block 14
 10
0.0
 20
0.0
 30
0.0
  0
INSERT
  5
B0
330
1F
100
AcDbEntity
  8
Layer 1
100
AcDbBlockReference
  2
block 17
 10
0.0
 20
0.0
 30
0.0
  0
INSERT
  5
C7
330
1F
100
AcDbEntity
  8
Layer 1
100
AcDbBlockReference
  2
block 21
 10
0.0
 20
0.0
 30
0.0
  0
INSERT
  5
D3
330
1F
100
AcDbEntity
  8
Layer 1
100
AcDbBlockReference
  2
block 22
 10
0.0
 20
0.0
 30
0.0
  0
INSERT
  5
EA
330
1F
100
AcDbEntity
  8
Layer 1
100
AcDbBlockReference
  2
block 26
 10
0.0
 20
0.0
 30
0.0
  0
INSERT
  5
F6
330
1F
100
AcDbEntity
  8
Layer 1
100
AcDbBlockReference
  2
block 27
 10
0.0
 20
0.0
 30
0.0
  0
INSERT
  5
10D
330
1F
100
AcDbEntity
  8
Layer 1
100
AcDbBlockReference
  2
block 31
 10
0.0
 20
0.0
 30
0.0
  0
INSERT
  5
119
330
1F
100
AcDbEntity
  8
Layer 1
100
AcDbBlockReference
  2
block 32
 10
0.0
 20
0.0
 30
0.0
  0
INSERT
  5
130
330
1F
100
AcDbEntity
  8
Layer 1
100
AcDbBlockReference
  2
block 36
 10
0.0
 20
0.0
 30
0.0
  0
INSERT
  5
13C
330
1F
100
AcDbEntity
  8
Layer 1
100
AcDbBlockReference
  2
block 37
 10
0.0
 20
0.0
 30
0.0
  0
INSERT
  5
153
330
1F
100
AcDbEntity
  8
Layer 1
100
AcDbBlockReference
  2
block 41
 10
0.0
 20
0.0
 30
0.0
  0
ENDSEC
  0
SECTION
  2
OBJECTS
  0
DICTIONARY
  5
C
330
0
100
AcDbDictionary
281
     1
  3
ACAD_GROUP
350
D
  3
ACAD_LAYOUT
350
1A
  3
ACAD_MATERIAL
350
3B
  3
ACAD_MLEADERSTYLE
350
15F
  3
ACAD_MLINESTYLE
350
17
  3
ACAD_PLOTSETTINGS
350
19
  3
ACAD_PLOTSTYLENAME
350
E
  3
ACAD_TABLESTYLE
350
15E
  3
ACAD_VISUALSTYLE
350
2A
  0
SUN
  5
3F
330
29
100
AcDbSun
 90
        1
290
     0
 63
     7
421
 16777215
 40
1.0
291
     1
 91
  2455826
 92
 54000000
292
     0
 70
     2
 71
   256
280
     1
  0
DICTIONARY
  5
D
102
{ACAD_REACTORS
330
C
102
}
330
C
100
AcDbDictionary
281
     1
  0
DICTIONARY
  5
1A
102
{ACAD_REACTORS
330
C
102
}
330
C
100
AcDbDictionary
281
     1
  3
Layout1
350
1E
  3
Layout2
350
26
  3
Model
350
22
  0
DICTIONARY
  5
3B
102
{ACAD_REACTORS
330
C
102
}
330
C
100
AcDbDictionary
281
     1
  3
ByBlock
350
3D
  3
ByLayer
350
3C
  3
Global
350
3E
  0
DICTIONARY
  5
15F
102
{ACAD_REACTORS
330
C
102
}
330
C
100
AcDbDictionary
281
     1
  0
DICTIONARY
  5
17
102
{ACAD_REACTORS
330
C
102
}
330
C
100
AcDbDictionary
281
     1
  3
Standard
350
18
  0
DICTIONARY
  5
19
102
{ACAD_REACTORS
330
C
102
}
330
C
100
AcDbDictionary
281
     1
  0
ACDBDICTIONARYWDFLT
  5
E
102
{ACAD_REACTORS
330
C
102
}
330
C
100
AcDbDictionary
281
     1
  3
Normal
350
F
100
AcDbDictionaryWithDefault
340
F
  0
DICTIONARY
  5
15E
102
{ACAD_REACTORS
330
C
102
}
330
C
100
AcDbDictionary
281
     1
  0
DICTIONARY
  5
2A
102
{ACAD_REACTORS
330
C
102
}
330
C
100
AcDbDictionary
281
     1
  3
2dWireframe
350
2F
  3
3D Hidden
350
31
  3
3dWireframe
350
30
  3
Basic
350
32
  3
Brighten
350
36
  3
ColorChange
350
3A
  3
Conceptual
350
34
  3
Dim
350
35
  3
Facepattern
350
39
  3
Flat
350
2B
  3
FlatWithEdges
350
2C
  3
Gouraud
350
2D
  3
GouraudWithEdges
350
2E
  3
Linepattern
350
38
  3
Realistic
350
33
  3
Thicken
350
37
  0
LAYOUT
  5
1E
102
{ACAD_REACTORS
330
1A
102
}
330
1A
100
AcDbPlotSettings
  1

  2
none_device
  4

  6

 40
0.0
 41
0.0
 42
0.0
 43
0.0
 44
0.0
 45
0.0
 46
0.0
 47
0.0
 48
0.0
 49
0.0
140
0.0
141
0.0
142
1.0
143
1.0
 70
   688
 72
     0
 73
     0
 74
     5
  7

 75
    16
 76
     0
 77
     2
 78
   300
147
1.0
148
0.0
149
0.0
100
AcDbLayout
  1
Layout1
 70
     1
 71
     1
 10
0.0
 20
0.0
 11
12.0
 21
9.0
 12
0.0
 22
0.0
 32
0.0
 14
1.000000000000000E+20
 24
1.000000000000000E+20
 34
1.000000000000000E+20
 15
-1.000000000000000E+20
 25
-1.000000000000000E+20
 35
-1.000000000000000E+20
146
0.0
 13
0.0
 23
0.0
 33
0.0
 16
1.0
 26
0.0
 36
0.0
 17
0.0
 27
1.0
 37
0.0
 76
     0
330
1B
  0
LAYOUT
  5
26
102
{ACAD_REACTORS
330
1A
102
}
330
1A
100
AcDbPlotSettings
  1

  2
none_device
  4

  6

 40
0.0
 41
0.0
 42
0.0
 43
0.0
 44
0.0
 45
0.0
 46
0.0
 47
0.0
 48
0.0
 49
0.0
140
0.0
141
0.0
142
1.0
143
1.0
 70
   688
 72
     0
 73
     0
 74
     5
  7

 75
    16
 76
     0
 77
     2
 78
   300
147
1.0
148
0.0
149
0.0
100
AcDbLayout
  1
Layout2
 70
     1
 71
     2
 10
0.0
 20
0.0
 11
0.0
 21
0.0
 12
0.0
 22
0.0
 32
0.0
 14
0.0
 24
0.0
 34
0.0
 15
0.0
 25
0.0
 35
0.0
146
0.0
 13
0.0
 23
0.0
 33
0.0
 16
1.0
 26
0.0
 36
0.0
 17
0.0
 27
1.0
 37
0.0
 76
     0
330
23
  0
LAYOUT
  5
22
102
{ACAD_REACTORS
330
1A
102
}
330
1A
100
AcDbPlotSettings
  1

  2
none_device
  4

  6

 40
0.0
 41
0.0
 42
0.0
 43
0.0
 44
0.0
 45
0.0
 46
0.0
 47
0.0
 48
0.0
 49
0.0
140
0.0
141
0.0
142
1.0
143
1.0
 70
  1712
 72
     0
 73
     0
 74
     0
  7

 75
     0
 76
     0
 77
     2
 78
   300
147
1.0
148
0.0
149
0.0
100
AcDbLayout
  1
Model
 70
     1
 71
     0
 10
0.0
 20
0.0
 11
12.0
 21
9.0
 12
0.0
 22
0.0
 32
0.0
 14
1.000000000000000E+20
 24
1.000000000000000E+20
 34
1.000000000000000E+20
 15
-1.000000000000000E+20
 25
-1.000000000000000E+20
 35
-1.000000000000000E+20
146
0.0
 13
0.0
 23
0.0
 33
0.0
 16
1.0
 26
0.0
 36
0.0
 17
0.0
 27
1.0
 37
0.0
 76
     0
330
1F
331
29
  0
MATERIAL
  5
3D
102
{ACAD_REACTORS
330
3B
102
}
330
3B
100
AcDbMaterial
  1
ByBlock
 72
     1
 94
      127
  0
MATERIAL
  5
3C
102
{ACAD_REACTORS
330
3B
102
}
330
3B
100
AcDbMaterial
  1
ByLayer
 72
     1
 94
      127
  0
MATERIAL
  5
3E
102
{ACAD_REACTORS
330
3B
102
}
330
3B
100
AcDbMaterial
  1
Global
 72
     1
 94
      127
  0
MLINESTYLE
  5
18
102
{ACAD_REACTORS
330
17
102
}
330
17
100
AcDbMlineStyle
  2
Standard
 70
     0
  3

 62
   256
 51
90.0
 52
90.0
 71
     2
 49
0.5
 62
   256
  6
BYLAYER
 49
-0.5
 62
   256
  6
BYLAYER
  0
ACDBPLACEHOLDER
  5
F
102
{ACAD_REACTORS
330
E
102
}
330
E
  0
VISUALSTYLE
  5
2F
102
{ACAD_REACTORS
330
2A
102
}
330
2A
100
AcDbVisualStyle
  2
2dWireframe
 70
     4
177
     2
291
     0
 71
     0
176
     1
 72
     2
176
     1
 73
     0
176
     1
 90
        0
176
     1
 40
-0.6
176
     1
 41
-30.0
176
     1
 62
     5
 63
     7
421
 16777215
176
     1
 74
     1
176
     1
 91
        4
176
     1
 64
     7
176
     1
 65
   257
176
     1
 75
     1
176
     1
175
     1
176
     1
 42
1.0
176
     1
 92
        0
176
     1
 66
   257
176
     1
 43
1.0
176
     1
 76
     1
176
     1
 77
     6
176
     1
 78
     2
176
     1
 67
     7
176
     1
 79
     5
176
     1
170
     0
176
     1
171
     0
176
     1
290
     0
176
     1
 93
        1
176
     1
 44
0.0
176
     1
173
     0
176
     1
  0
VISUALSTYLE
  5
31
102
{ACAD_REACTORS
330
2A
102
}
330
2A
100
AcDbVisualStyle
  2
3D Hidden
 70
     6
177
     2
291
     0
 71
     1
176
     1
 72
     2
176
     1
 73
     2
176
     1
 90
        0
176
     1
 40
-0.6
176
     1
 41
-30.0
176
     1
 62
     5
 63
     7
421
 16777215
176
     1
 74
     2
176
     1
 91
        2
176
     1
 64
     7
176
     1
 65
   257
176
     1
 75
     2
176
     1
175
     1
176
     1
 42
40.0
176
     1
 92
        0
176
     1
 66
   257
176
     1
 43
1.0
176
     1
 76
     1
176
     1
 77
     6
176
     1
 78
     2
176
     1
 67
     7
176
     1
 79
     3
176
     1
170
     0
176
     1
171
     0
176
     1
290
     0
176
     1
 93
        1
176
     1
 44
0.0
176
     1
173
     0
176
     1
  0
VISUALSTYLE
  5
30
102
{ACAD_REACTORS
330
2A
102
}
330
2A
100
AcDbVisualStyle
  2
3dWireframe
 70
     5
177
     2
291
     0
 71
     0
176
     1
 72
     2
176
     1
 73
     0
176
     1
 90
        0
176
     1
 40
-0.6
176
     1
 41
-30.0
176
     1
 62
     5
 63
     7
421
 16777215
176
     1
 74
     1
176
     1
 91
        4
176
     1
 64
     7
176
     1
 65
   257
176
     1
 75
     1
176
     1
175
     1
176
     1
 42
1.0
176
     1
 92
        0
176
     1
 66
   257
176
     1
 43
1.0
176
     1
 76
     1
176
     1
 77
     6
176
     1
 78
     2
176
     1
 67
     7
176
     1
 79
     5
176
     1
170
     0
176
     1
171
     0
176
     1
290
     0
176
     1
 93
        1
176
     1
 44
0.0
176
     1
173
     0
176
     1
  0
VISUALSTYLE
  5
32
102
{ACAD_REACTORS
330
2A
102
}
330
2A
100
AcDbVisualStyle
  2
Basic
 70
     7
177
     2
291
     1
 71
     1
176
     1
 72
     0
176
     1
 73
     1
176
     1
 90
        0
176
     1
 40
-0.6
176
     1
 41
-30.0
176
     1
 62
     5
 63
     7
421
 16777215
176
     1
 74
     0
176
     1
 91
        4
176
     1
 64
     7
176
     1
 65
   257
176
     1
 75
     1
176
     1
175
     1
176
     1
 42
1.0
176
     1
 92
        8
176
     1
 66
     7
176
     1
 43
1.0
176
     1
 76
     1
176
     1
 77
     6
176
     1
 78
     2
176
     1
 67
     7
176
     1
 79
     5
176
     1
170
     0
176
     1
171
     0
176
     1
290
     0
176
     1
 93
        1
176
     1
 44
0.0
176
     1
173
     0
176
     1
  0
VISUALSTYLE
  5
36
102
{ACAD_REACTORS
330
2A
102
}
330
2A
100
AcDbVisualStyle
  2
Brighten
 70
    12
177
     2
291
     1
 71
     2
176
     1
 72
     2
176
     1
 73
     0
176
     1
 90
        0
176
     1
 40
-0.6
176
     1
 41
-30.0
176
     1
 62
     5
 63
     7
421
 16777215
176
     1
 74
     1
176
     1
 91
        4
176
     1
 64
     7
176
     1
 65
   257
176
     1
 75
     1
176
     1
175
     1
176
     1
 42
1.0
176
     1
 92
        8
176
     1
 66
     7
176
     1
 43
1.0
176
     1
 76
     1
176
     1
 77
     6
176
     1
 78
     2
176
     1
 67
     7
176
     1
 79
     5
176
     1
170
     0
176
     1
171
     0
176
     1
290
     0
176
     1
 93
        1
176
     1
 44
50.0
176
     1
173
     0
176
     1
  0
VISUALSTYLE
  5
3A
102
{ACAD_REACTORS
330
2A
102
}
330
2A
100
AcDbVisualStyle
  2
ColorChange
 70
    16
177
     2
291
     1
 71
     2
176
     1
 72
     2
176
     1
 73
     3
176
     1
 90
        0
176
     1
 40
-0.6
176
     1
 41
-30.0
176
     1
 62
     5
 63
     8
421
  8421504
176
     1
 74
     1
176
     1
 91
        4
176
     1
 64
     7
176
     1
 65
   257
176
     1
 75
     1
176
     1
175
     1
176
     1
 42
1.0
176
     1
 92
        8
176
     1
 66
     8
424
  8421504
176
     1
 43
1.0
176
     1
 76
     1
176
     1
 77
     6
176
     1
 78
     2
176
     1
 67
     7
176
     1
 79
     5
176
     1
170
     0
176
     1
171
     0
176
     1
290
     0
176
     1
 93
        1
176
     1
 44
0.0
176
     1
173
     0
176
     1
  0
VISUALSTYLE
  5
34
102
{ACAD_REACTORS
330
2A
102
}
330
2A
100
AcDbVisualStyle
  2
Conceptual
 70
     9
177
     2
291
     0
 71
     3
176
     1
 72
     2
176
     1
 73
     0
176
     1
 90
        0
176
     1
 40
-0.6
176
     1
 41
-30.0
176
     1
 62
     5
 63
     7
421
 16777215
176
     1
 74
     2
176
     1
 91
        2
176
     1
 64
     7
176
     1
 65
   257
176
     1
 75
     1
176
     1
175
     1
176
     1
 42
40.0
176
     1
 92
        8
176
     1
 66
     7
176
     1
 43
1.0
176
     1
 76
     1
176
     1
 77
     6
176
     1
 78
     2
176
     1
 67
     7
176
     1
 79
     3
176
     1
170
     0
176
     1
171
     0
176
     1
290
     0
176
     1
 93
        1
176
     1
 44
0.0
176
     1
173
     0
176
     1
  0
VISUALSTYLE
  5
35
102
{ACAD_REACTORS
330
2A
102
}
330
2A
100
AcDbVisualStyle
  2
Dim
 70
    11
177
     2
291
     1
 71
     2
176
     1
 72
     2
176
     1
 73
     0
176
     1
 90
        0
176
     1
 40
-0.6
176
     1
 41
-30.0
176
     1
 62
     5
 63
     7
421
 16777215
176
     1
 74
     1
176
     1
 91
        4
176
     1
 64
     7
176
     1
 65
   257
176
     1
 75
     1
176
     1
175
     1
176
     1
 42
1.0
176
     1
 92
        8
176
     1
 66
     7
176
     1
 43
1.0
176
     1
 76
     1
176
     1
 77
     6
176
     1
 78
     2
176
     1
 67
     7
176
     1
 79
     5
176
     1
170
     0
176
     1
171
     0
176
     1
290
     0
176
     1
 93
        1
176
     1
 44
-50.0
176
     1
173
     0
176
     1
  0
VISUALSTYLE
  5
39
102
{ACAD_REACTORS
330
2A
102
}
330
2A
100
AcDbVisualStyle
  2
Facepattern
 70
    15
177
     2
291
     1
 71
     2
176
     1
 72
     2
176
     1
 73
     0
176
     1
 90
        0
176
     1
 40
-0.6
176
     1
 41
-30.0
176
     1
 62
     5
 63
     7
421
 16777215
176
     1
 74
     1
176
     1
 91
        4
176
     1
 64
     7
176
     1
 65
   257
176
     1
 75
     1
176
     1
175
     1
176
     1
 42
1.0
176
     1
 92
        8
176
     1
 66
     7
176
     1
 43
1.0
176
     1
 76
     1
176
     1
 77
     6
176
     1
 78
     2
176
     1
 67
     7
176
     1
 79
     5
176
     1
170
     0
176
     1
171
     0
176
     1
290
     0
176
     1
 93
        1
176
     1
 44
0.0
176
     1
173
     0
176
     1
  0
VISUALSTYLE
  5
2B
102
{ACAD_REACTORS
330
2A
102
}
330
2A
100
AcDbVisualStyle
  2
Flat
 70
     0
177
     2
291
     1
 71
     2
176
     1
 72
     1
176
     1
 73
     1
176
     1
 90
        2
176
     1
 40
-0.6
176
     1
 41
30.0
176
     1
 62
     5
 63
     7
421
 16777215
176
     1
 74
     0
176
     1
 91
        4
176
     1
 64
     7
176
     1
 65
   257
176
     1
 75
     1
176
     1
175
     1
176
     1
 42
1.0
176
     1
 92
        8
176
     1
 66
     7
176
     1
 43
1.0
176
     1
 76
     1
176
     1
 77
     6
176
     1
 78
     2
176
     1
 67
     7
176
     1
 79
     5
176
     1
170
     0
176
     1
171
     0
176
     1
290
     0
176
     1
 93
       13
176
     1
 44
0.0
176
     1
173
     0
176
     1
  0
VISUALSTYLE
  5
2C
102
{ACAD_REACTORS
330
2A
102
}
330
2A
100
AcDbVisualStyle
  2
FlatWithEdges
 70
     1
177
     2
291
     1
 71
     2
176
     1
 72
     1
176
     1
 73
     1
176
     1
 90
        2
176
     1
 40
-0.6
176
     1
 41
30.0
176
     1
 62
     5
 63
     7
421
 16777215
176
     1
 74
     1
176
     1
 91
        4
176
     1
 64
     7
176
     1
 65
   257
176
     1
 75
     1
176
     1
175
     1
176
     1
 42
1.0
176
     1
 92
        0
176
     1
 66
   257
176
     1
 43
1.0
176
     1
 76
     1
176
     1
 77
     6
176
     1
 78
     2
176
     1
 67
     7
176
     1
 79
     5
176
     1
170
     0
176
     1
171
     0
176
     1
290
     0
176
     1
 93
       13
176
     1
 44
0.0
176
     1
173
     0
176
     1
  0
VISUALSTYLE
  5
2D
102
{ACAD_REACTORS
330
2A
102
}
330
2A
100
AcDbVisualStyle
  2
Gouraud
 70
     2
177
     2
291
     1
 71
     2
176
     1
 72
     2
176
     1
 73
     1
176
     1
 90
        2
176
     1
 40
-0.6
176
     1
 41
30.0
176
     1
 62
     5
 63
     7
421
 16777215
176
     1
 74
     0
176
     1
 91
        4
176
     1
 64
     7
176
     1
 65
   257
176
     1
 75
     1
176
     1
175
     1
176
     1
 42
1.0
176
     1
 92
        0
176
     1
 66
     7
176
     1
 43
1.0
176
     1
 76
     1
176
     1
 77
     6
176
     1
 78
     2
176
     1
 67
     7
176
     1
 79
     5
176
     1
170
     0
176
     1
171
     0
176
     1
290
     0
176
     1
 93
       13
176
     1
 44
0.0
176
     1
173
     0
176
     1
  0
VISUALSTYLE
  5
2E
102
{ACAD_REACTORS
330
2A
102
}
330
2A
100
AcDbVisualStyle
  2
GouraudWithEdges
 70
     3
177
     2
291
     1
 71
     2
176
     1
 72
     2
176
     1
 73
     1
176
     1
 90
        2
176
     1
 40
-0.6
176
     1
 41
30.0
176
     1
 62
     5
 63
     7
421
 16777215
176
     1
 74
     1
176
     1
 91
        4
176
     1
 64
     7
176
     1
 65
   257
176
     1
 75
     1
176
     1
175
     1
176
     1
 42
1.0
176
     1
 92
        0
176
     1
 66
   257
176
     1
 43
1.0
176
     1
 76
     1
176
     1
 77
     6
176
     1
 78
     2
176
     1
 67
     7
176
     1
 79
     5
176
     1
170
     0
176
     1
171
     0
176
     1
290
     0
176
     1
 93
       13
176
     1
 44
0.0
176
     1
173
     0
176
     1
  0
VISUALSTYLE
  5
38
102
{ACAD_REACTORS
330
2A
102
}
330
2A
100
AcDbVisualStyle
  2
Linepattern
 70
    14
177
     2
291
     1
 71
     2
176
     1
 72
     2
176
     1
 73
     0
176
     1
 90
        0
176
     1
 40
-0.6
176
     1
 41
-30.0
176
     1
 62
     5
 63
     7
421
 16777215
176
     1
 74
     1
176
     1
 91
        4
176
     1
 64
     7
176
     1
 65
   257
176
     1
 75
     7
176
     1
175
     7
176
     1
 42
1.0
176
     1
 92
        8
176
     1
 66
     7
176
     1
 43
1.0
176
     1
 76
     1
176
     1
 77
     6
176
     1
 78
     2
176
     1
 67
     7
176
     1
 79
     5
176
     1
170
     0
176
     1
171
     0
176
     1
290
     0
176
     1
 93
        1
176
     1
 44
0.0
176
     1
173
     0
176
     1
  0
VISUALSTYLE
  5
33
102
{ACAD_REACTORS
330
2A
102
}
330
2A
100
AcDbVisualStyle
  2
Realistic
 70
     8
177
     2
291
     0
 71
     2
176
     1
 72
     2
176
     1
 73
     0
176
     1
 90
        0
176
     1
 40
-0.6
176
     1
 41
-30.0
176
     1
 62
     5
 63
     7
421
 16777215
176
     1
 74
     1
176
     1
 91
        0
176
     1
 64
     7
176
     1
 65
   257
176
     1
 75
     1
176
     1
175
     1
176
     1
 42
1.0
176
     1
 92
        8
176
     1
 66
     8
424
  7895160
176
     1
 43
1.0
176
     1
 76
     1
176
     1
 77
     6
176
     1
 78
     2
176
     1
 67
     7
176
     1
 79
     5
176
     1
170
     0
176
     1
171
     0
176
     1
290
     0
176
     1
 93
       13
176
     1
 44
0.0
176
     1
173
     0
176
     1
  0
VISUALSTYLE
  5
37
102
{ACAD_REACTORS
330
2A
102
}
330
2A
100
AcDbVisualStyle
  2
Thicken
 70
    13
177
     2
291
     1
 71
     2
176
     1
 72
     2
176
     1
 73
     0
176
     1
 90
        0
176
     1
 40
-0.6
176
     1
 41
-30.0
176
     1
 62
     5
 63
     7
421
 16777215
176
     1
 74
     1
176
     1
 91
        4
176
     1
 64
     7
176
     1
 65
   257
176
     1
 75
     1
176
     1
175
     1
176
     1
 42
1.0
176
     1
 92
       12
176
     1
 66
     7
176
     1
 43
1.0
176
     1
 76
     1
176
     1
 77
     6
176
     1
 78
     2
176
     1
 67
     7
176
     1
 79
     5
176
     1
170
     0
176
     1
171
     0
176
     1
290
     0
176
     1
 93
        1
176
     1
 44
0.0
176
     1
173
     0
176
     1
  0
ENDSEC
  0
EOF
